<?xml version="1.0" standalone="no"?>
<!DOCTYPE svg PUBLIC "-//W3C//DTD SVG 1.1//EN" "http://www.w3.org/Graphics/SVG/1.1/DTD/svg11.dtd" >
<svg xmlns="http://www.w3.org/2000/svg" xmlns:xlink="http://www.w3.org/1999/xlink" version="1.1">
<metadata>
Created by FontForge 20161003 at Sat Oct 21 06:42:37 2017
 By www-data
Copyright (c) 1990-2003 ParaType, Inc. All Rights Reserved. ITC Officina Serif is a registered trade mark of International Typeface Corporation.
</metadata>
<defs>
<font id="OfficinaSerifExtraBoldC" horiz-adv-x="520" >
  <font-face 
    font-family="OfficinaSerifExtraBoldC"
    font-weight="800"
    font-stretch="normal"
    units-per-em="1000"
    panose-1="0 0 9 0 0 0 0 0 0 0"
    ascent="729"
    descent="-271"
    x-height="494"
    cap-height="686"
    bbox="-57.8889 -269.7 986 948"
    underline-thickness="50"
    underline-position="-150"
    unicode-range="U+0020-F6D4"
  />
<missing-glyph horiz-adv-x="233" 
 />
    <glyph glyph-name=".notdef" horiz-adv-x="233" 
 />
    <glyph glyph-name=".null" horiz-adv-x="0" 
 />
    <glyph glyph-name="nonmarkingreturn" horiz-adv-x="333" 
 />
    <glyph glyph-name="space" unicode=" " horiz-adv-x="233" 
 />
    <glyph glyph-name="space" unicode="&#xa0;" horiz-adv-x="233" 
 />
    <glyph glyph-name="exclam" unicode="!" horiz-adv-x="358" 
d="M267 676l-23 -398q-1 -13 -4.5 -16.5t-16.5 -3.5h-91q-13 0 -16.5 3.5t-4.5 16.5l-24 398q-1 13 2.5 17t18.5 4h139q14 0 17.5 -4t2.5 -17zM279 70q0 -41 -29.5 -70.5t-70.5 -29.5t-70.5 29.5t-29.5 70.5t29.5 70.5t70.5 29.5t70.5 -29.5t29.5 -70.5z" />
    <glyph glyph-name="quotedbl" unicode="&#x22;" horiz-adv-x="423" 
d="M391 666l-22 -235q-1 -8 -1.5 -11t-2.5 -6t-5.5 -3.5t-10.5 -0.5h-72q-13 0 -16 3.5t-5 17.5l-22 235q-1 13 3 16.5t18 3.5h115q14 0 18 -3.5t3 -16.5zM190 666l-21 -235q-2 -14 -5 -17.5t-16 -3.5h-71q-13 0 -16 3.5t-5 17.5l-21 235q-1 13 2.5 16.5t17.5 3.5h115
q14 0 18 -3.5t2 -16.5z" />
    <glyph glyph-name="numbersign" unicode="#" horiz-adv-x="684" 
d="M652 470l-10 -92q-2 -14 -6 -17.5t-18 -3.5h-72l-14 -115h75q14 0 17 -3.5t1 -16.5l-10 -93q-1 -14 -5 -17t-18 -3h-75l-18 -168q-2 -14 -5.5 -17.5t-17.5 -3.5h-117q-13 0 -16 3.5t-1 17.5l17 168h-75l-18 -168q-2 -14 -5.5 -17.5t-17.5 -3.5h-117q-13 0 -16.5 3.5
t-1.5 17.5l19 168h-76q-14 0 -17 3t-1 17l10 93q2 13 5 16.5t17 3.5h77l13 115h-75q-14 0 -17 3.5t-1 17.5l10 92q2 14 5 17.5t17 3.5h75l16 155q1 13 5 16.5t18 3.5h116q14 0 17 -3t1 -17l-16 -155h75l16 153q2 14 6.5 18t17.5 4h116q14 0 17 -3.5t2 -16.5l-16 -155h75
q14 0 16.5 -3.5t0.5 -17.5zM387 357h-75l-14 -115h76z" />
    <glyph glyph-name="dollar" unicode="$" horiz-adv-x="547" 
d="M480 610l-38 -90q-7 -16 -30 -3q-72 39 -134 39q-79 0 -79 -62q0 -21 11.5 -34.5t36.5 -28.5q12 -7 28 -15t36.5 -18.5t30.5 -15.5q56 -29 85 -49.5t46 -48.5q25 -41 25 -94q0 -78 -47.5 -131.5t-129.5 -68.5v-46q0 -14 -3.5 -17t-17.5 -3h-51q-13 0 -17 3t-4 17v43
q-95 10 -161 44q-20 10 -15 25l33 101q5 18 32 7q99 -45 153 -45q77 0 77 67q0 13 -7.5 25.5t-16.5 21.5t-26 19.5t-27 15.5t-29.5 14t-23.5 11q-3 1 -17 7.5t-17.5 8.5t-15.5 8t-17 9t-15 9.5t-15.5 11.5t-13 11.5t-13.5 14t-11 15.5q-29 45 -29 103q0 74 46.5 123.5
t128.5 63.5v49q0 13 4 17t17 4h51q14 0 17.5 -4t3.5 -17v-47q85 -6 143 -40q24 -14 16 -30z" />
    <glyph glyph-name="percent" unicode="%" horiz-adv-x="880" 
d="M843 170q0 -81 -44 -134t-123 -53q-78 0 -121.5 50t-43.5 132q0 83 45 135t122 52t121 -49.5t44 -132.5zM635 652l-281 -675q-7 -17 -24 -17h-72q-26 0 -16 25l281 677q7 15 24 15h71q15 0 19 -6t-2 -19zM369 480q0 -81 -44 -134t-123 -53q-78 0 -121.5 50t-43.5 132
q0 83 45 135t122 52t121 -49.5t44 -132.5zM727 167q0 93 -50 93q-49 0 -49 -91q0 -93 49 -93q50 0 50 91zM253 477q0 94 -50 94q-49 0 -49 -92t49 -92q50 0 50 90z" />
    <glyph glyph-name="ampersand" unicode="&#x26;" horiz-adv-x="642" 
d="M556 153l68 -74q9 -10 8.5 -15.5t-9.5 -14.5l-69 -66q-13 -12 -28 3l-54 55q-42 -35 -85 -51t-109 -16q-111 0 -175.5 52.5t-64.5 145.5q0 67 36.5 110.5t101.5 84.5q-48 56 -66.5 91t-18.5 72q0 75 60.5 126t147.5 51q85 0 139 -46.5t54 -121.5q0 -69 -57 -128
q-22 -23 -65 -56l90 -102q16 34 24 103q1 10 6.5 11.5t13.5 -0.5l96 -17q12 -3 12 -17q0 -32 -17 -86.5t-39 -93.5zM349 533q0 28 -15.5 43t-40.5 15q-26 0 -43 -16t-17 -41q0 -31 27 -63q9 -10 16.5 -18.5t14.5 -16.5q33 30 45.5 51t12.5 46zM382 141l-124 140
q-64 -45 -64 -97q0 -37 26 -61t65 -24q53 0 97 42z" />
    <glyph glyph-name="quotesingle" unicode="'" horiz-adv-x="222" 
d="M190 666l-21 -235q-2 -14 -5 -17.5t-16 -3.5h-71q-13 0 -16 3.5t-5 17.5l-21 235q-1 13 2.5 16.5t17.5 3.5h115q14 0 18 -3.5t2 -16.5z" />
    <glyph glyph-name="parenleft" unicode="(" horiz-adv-x="450" 
d="M343 753l70 -44q14 -9 0 -31q-88 -127 -118 -205q-39 -99 -39 -229q0 -110 30.5 -195t86.5 -173q38 -61 46 -77q7 -13 -6 -21l-73 -45q-13 -9 -34 12q-42 44 -101 135q-111 175 -111 364q0 135 55 260q53 119 158 240q10 12 16.5 14t19.5 -5z" />
    <glyph glyph-name="parenright" unicode=")" horiz-adv-x="458" 
d="M45 709l70 44q13 7 19.5 5t16.5 -14q105 -121 158 -240q56 -128 56 -260q0 -118 -42.5 -221.5t-122.5 -209.5q-48 -64 -56 -72q-15 -15 -26 -8l-73 45q-8 5 -8.5 12t2.5 12.5t12 17.5q44 60 70 106q81 143 81 318q0 130 -39 229q-30 78 -118 205q-14 22 0 31z" />
    <glyph glyph-name="asterisk" unicode="*" horiz-adv-x="549" 
d="M454 588l29 -86q5 -13 2.5 -18t-17.5 -7l-116 -18l81 -82q10 -10 9.5 -15.5t-11.5 -13.5l-74 -53q-11 -9 -17 -7.5t-12 14.5l-51 108l-53 -109q-6 -13 -11.5 -13.5t-16.5 7.5l-75 53q-11 7 -11 13t9 15l84 86l-116 16q-14 2 -16.5 7t2.5 18l29 87q4 14 10 16t17 -5
l103 -56l-17 118q-2 14 1 18.5t17 4.5h92q13 0 16.5 -4.5t1.5 -18.5l-21 -119l105 56q12 6 17.5 3.5t9.5 -15.5z" />
    <glyph glyph-name="plus" unicode="+" 
d="M489 328v-99q0 -14 -3.5 -17t-17.5 -3h-131v-131q0 -14 -3 -17t-17 -3h-113q-14 0 -17.5 3t-3.5 17v131h-131q-14 0 -17 3t-3 17v99q0 13 3 17t17 4h131v130q0 13 3.5 17t17.5 4h113q14 0 17 -3.5t3 -17.5v-130h131q14 0 17.5 -4t3.5 -17z" />
    <glyph glyph-name="comma" unicode="," horiz-adv-x="307" 
d="M274 110l-135 -257q-6 -11 -11 -12.5t-16 2.5l-61 20q-12 4 -14 9t2 17l69 229q5 17 22 17h129q17 0 19.5 -6t-4.5 -19z" />
    <glyph glyph-name="hyphen" unicode="-" horiz-adv-x="391" 
d="M359 305v-103q0 -14 -3.5 -17.5t-17.5 -3.5h-285q-14 0 -17 3.5t-3 17.5v103q0 13 3 17t17 4h285q14 0 17.5 -4t3.5 -17z" />
    <glyph glyph-name="hyphen" unicode="&#xad;" horiz-adv-x="391" 
d="M359 305v-103q0 -14 -3.5 -17.5t-17.5 -3.5h-285q-14 0 -17 3.5t-3 17.5v103q0 13 3 17t17 4h285q14 0 17.5 -4t3.5 -17z" />
    <glyph glyph-name="period" unicode="." horiz-adv-x="302" 
d="M261 89q0 -46 -32 -78t-78 -32t-78 32t-32 78t32 78.5t78 32.5t78 -32.5t32 -78.5z" />
    <glyph glyph-name="slash" unicode="/" horiz-adv-x="453" 
d="M433 721l-325 -967q-5 -17 -27 -17h-85q-15 0 -18 5.5t2 18.5l326 967q8 18 26 18h85q15 0 18 -7t-2 -18z" />
    <glyph glyph-name="zero" unicode="0" horiz-adv-x="536" 
d="M521 347q0 -203 -73 -288q-65 -76 -183 -76q-122 0 -186 90t-64 254q0 202 86 289q68 70 176 70q100 0 162 -67q82 -89 82 -272zM366 318q0 139 -22 191t-72 52q-51 0 -76.5 -54t-25.5 -177q0 -119 25 -170.5t74 -51.5q57 0 79 55q18 44 18 155z" />
    <glyph glyph-name="one" unicode="1" horiz-adv-x="540" 
d="M472 98v-77q0 -14 -3.5 -17.5t-17.5 -3.5h-314q-14 0 -17.5 3.5t-3.5 17.5v77q0 14 3.5 17t17.5 3h90v369l-96 -53q-8 -4 -12 -5t-7 1.5t-8 10.5l-37 63q-7 11 -6 15.5t12 12.5l200 137h89q14 0 17 -4t3 -17v-530h69q14 0 17.5 -3t3.5 -17z" />
    <glyph glyph-name="two" unicode="2" horiz-adv-x="536" 
d="M137 459l-86 32q-11 4 -11 14q0 24 29 74q61 107 200 107q95 0 150.5 -50t55.5 -138q0 -82 -35 -133q-34 -50 -104 -102l-50 -37q-62 -46 -71 -91h235q13 0 17 -3.5t4 -16.5v-94q0 -14 -3.5 -17.5t-16.5 -3.5h-391q-9 0 -12 3t-3 14v40q0 80 32 136q31 56 98 110
q63 51 81 65q39 31 55 57t16 62q0 69 -70 69q-36 0 -56.5 -21t-38.5 -64q-8 -18 -25 -12z" />
    <glyph glyph-name="three" unicode="3" horiz-adv-x="538" 
d="M136 499l-74 65q-7 6 3 23q30 48 80 73.5t109 25.5q94 0 153 -51t59 -134q0 -89 -84 -141q107 -47 107 -165q0 -94 -68.5 -152.5t-175.5 -58.5q-46 0 -103 12.5t-95 39.5q-10 6 -7 16l28 93q4 12 22 3q83 -40 142 -40q101 0 101 93q0 46 -25.5 66.5t-87.5 20.5h-33
q-14 0 -17.5 3.5t-3.5 17.5v83q0 14 4 17.5t17 2.5l35 -1q96 -3 96 83q0 31 -19 50t-51 19q-20 0 -38.5 -9t-27 -17.5t-24.5 -26.5q-1 -1 -3.5 -4.5t-4 -5t-4 -3.5t-5 -1.5t-5.5 3.5z" />
    <glyph glyph-name="four" unicode="4" horiz-adv-x="536" 
d="M519 224v-78q0 -13 -3 -17t-17 -4h-54v-122q0 -14 -3.5 -17t-16.5 -3h-108q-14 0 -17.5 3t-3.5 16v123h-255q-13 0 -17 4t-4 17v118l255 414q7 11 10.5 12.5t15.5 -3.5l99 -41q14 -6 15.5 -11.5t-6.5 -16.5l-246 -367h136l18 143q1 9 2.5 13t5 5.5t12.5 1.5h88
q13 0 16.5 -4t3.5 -17v-144h54q14 0 17 -4t3 -21z" />
    <glyph glyph-name="five" unicode="5" horiz-adv-x="538" 
d="M219 535l-12 -114q37 24 88 24q94 0 150.5 -59t56.5 -156q0 -117 -75 -186t-200 -69q-38 0 -88 9.5t-82 26.5q-13 7 -11 21l18 92q3 16 23 9q84 -27 141 -27q62 0 97 32.5t35 90.5q0 96 -89 96q-32 0 -52 -10.5t-44 -34.5q-10 -10 -22 -7l-82 26q-11 3 -13.5 7.5
t-1.5 16.5l32 326q2 13 5.5 16.5t16.5 3.5h321q14 0 17.5 -3.5t3.5 -18.5v-92q0 -13 -3 -16.5t-17 -3.5h-213z" />
    <glyph glyph-name="six" unicode="6" horiz-adv-x="536" 
d="M469 638l-30 -88q-4 -11 -16 -6q-38 18 -71 18q-109 0 -158 -140q53 46 108 46q81 0 128 -46q69 -68 69 -193q0 -111 -63 -178.5t-167 -67.5q-111 0 -168.5 77t-57.5 221q0 183 83.5 293.5t225.5 110.5q84 0 112 -30q8 -8 5 -17zM357 233q0 118 -78 118q-39 0 -61 -31
t-22 -89q0 -61 21 -92.5t58 -31.5q82 0 82 126z" />
    <glyph glyph-name="seven" unicode="7" horiz-adv-x="536" 
d="M482 596l-232 -599q-4 -10 -8 -12t-17 0l-113 20q-14 2 -16 7t4 18l205 498h-236q-14 0 -17.5 3t-3.5 17v100q0 14 3.5 17.5t17.5 3.5h393q13 0 16.5 -3.5t3.5 -17.5v-52z" />
    <glyph glyph-name="eight" unicode="8" horiz-adv-x="536" 
d="M515 183q0 -98 -73 -151t-175 -53q-113 0 -180 54t-67 147q0 56 34 101t94 72q-102 54 -102 153q0 81 63.5 132t158.5 51q97 0 161 -50.5t64 -131.5q0 -92 -102 -152q124 -63 124 -172zM339 495q0 33 -18.5 51.5t-52.5 18.5q-32 0 -52 -18.5t-20 -49.5q0 -57 78 -88
q65 26 65 86zM359 186q0 42 -25 65.5t-71 42.5q-91 -44 -91 -108q0 -37 25.5 -59.5t70.5 -22.5q42 0 66.5 23t24.5 59z" />
    <glyph glyph-name="nine" unicode="9" horiz-adv-x="536" 
d="M78 17l21 96q2 10 16 7q48 -12 73 -12q111 0 159 136q-48 -45 -108 -45q-78 0 -126 44q-72 66 -72 194q0 111 63.5 180t166.5 69q111 0 168.5 -77.5t57.5 -222.5q0 -182 -83 -292.5t-225 -110.5q-68 0 -101 16q-13 7 -10 18zM343 435q0 125 -77 125q-82 0 -82 -126
q0 -119 79 -119q80 0 80 120z" />
    <glyph glyph-name="colon" unicode=":" horiz-adv-x="302" 
d="M261 407q0 -46 -32 -78t-78 -32t-78 32t-32 78t32 78t78 32t78 -32t32 -78zM261 89q0 -46 -32 -78t-78 -32t-78 32t-32 78t32 78.5t78 32.5t78 -32.5t32 -78.5z" />
    <glyph glyph-name="semicolon" unicode=";" horiz-adv-x="313" 
d="M286 407q0 -46 -32 -78t-78 -32t-78 32t-32 78t32 78t78 32t78 -32t32 -78zM267 110l-137 -257q-6 -11 -11 -12.5t-15 2.5l-60 20q-12 4 -14.5 8.5t1.5 17.5l69 229q5 17 22 17h130q17 0 19.5 -6t-4.5 -19z" />
    <glyph glyph-name="less" unicode="&#x3c;" 
d="M499 182v-118q0 -16 -8 -16q-6 0 -13 4l-437 222q-17 9 -18 14q-1 3 -1 9v92q0 10 3 13t14 9l439 223q7 4 13 4q8 0 8 -16v-119q0 -11 -3.5 -15t-15.5 -10l-284 -134l284 -137q12 -6 15.5 -10t3.5 -15z" />
    <glyph glyph-name="equal" unicode="=" 
d="M494 421v-94q0 -14 -3.5 -17.5t-17.5 -3.5h-426q-14 0 -17 3.5t-3 17.5v94q0 13 3 16.5t17 3.5h426q14 0 17.5 -3.5t3.5 -16.5zM494 217v-94q0 -14 -3.5 -17t-17.5 -3h-426q-14 0 -17 3t-3 17v94q0 13 3 17t17 4h426q14 0 17.5 -4t3.5 -17z" />
    <glyph glyph-name="greater" unicode="&#x3e;" 
d="M499 389v-92q0 -7 -2.5 -11.5t-3.5 -5l-13 -6.5l-438 -222q-7 -4 -13 -4q-7 0 -7 16v119q0 11 3 15.5t15 9.5l284 136l-284 135q-12 6 -15 9.5t-3 14.5v119q0 16 7 16q6 0 13 -4l439 -223q16 -8 17 -14q1 -3 1 -8z" />
    <glyph glyph-name="question" unicode="?" horiz-adv-x="519" 
d="M91 544l-33 90q-4 11 0 16.5t16 12.5q35 21 91.5 33t92.5 12q96 0 155 -53.5t59 -141.5q0 -104 -98 -157q-27 -14 -67 -27l-1 -51q0 -14 -3.5 -18t-16.5 -4h-102q-14 0 -17.5 4t-3.5 18v120q0 11 4 15t19 8q73 19 103 38t30 56q0 58 -82 58q-10 0 -21.5 -1.5t-18 -3
t-20.5 -6t-17.5 -6t-21 -8.5t-19.5 -8q-1 0 -6.5 -3t-7 -3h-5t-5.5 2.5t-4 7.5zM338 70q0 -41 -29.5 -70.5t-70.5 -29.5t-70 29.5t-29 70.5t29 70.5t70 29.5t70.5 -29.5t29.5 -70.5z" />
    <glyph glyph-name="at" unicode="@" horiz-adv-x="1015" 
d="M808 -22l22 -61q5 -14 -12 -25q-48 -31 -139 -51.5t-179 -20.5q-199 0 -302 97q-107 101 -107 272q0 135 64.5 245t175.5 172t245 62q163 0 260 -83.5t97 -227.5q0 -136 -81.5 -224.5t-198.5 -88.5q-81 0 -95 63q-55 -63 -119 -63q-48 0 -73.5 34t-25.5 93
q0 106 53.5 185t125.5 79q59 0 91 -33q1 2 3.5 7.5t4 8.5t5 5.5t8.5 2.5h69q15 0 11 -20l-47 -221q-2 -8 -2 -24q0 -27 35 -27q51 0 90.5 66t39.5 150q0 101 -67.5 162t-188.5 61q-163 0 -265.5 -111.5t-102.5 -275.5q0 -131 81 -201q75 -65 213 -65q159 0 283 59
q24 10 28 -1zM566 228l18 95q-28 25 -50 25q-31 0 -50 -47q-26 -63 -26 -127q0 -21 5.5 -30t21.5 -9q27 0 50 25.5t31 67.5z" />
    <glyph glyph-name="A" unicode="A" horiz-adv-x="597" 
d="M601 104v-87q0 -10 -4 -13.5t-14 -3.5h-157q-10 0 -13 2.5t-6 14.5l-41 155h-152l-45 -163q-3 -9 -12 -9h-150q-11 0 -14 3t-3 14v87q0 10 3.5 13t13.5 3h30l173 549q4 12 7 14.5t15 2.5h127q12 0 15.5 -2.5t7.5 -14.5l169 -549h32q18 0 18 -16zM340 285l-32 144
q0 2 -20 126q-9 -69 -22 -126l-34 -144h108z" />
    <glyph glyph-name="B" unicode="B" horiz-adv-x="590" 
d="M47 686h238q83 0 122 -9.5t68 -37.5q54 -52 54 -134q0 -99 -92 -145q116 -41 116 -160q0 -63 -34.5 -116t-88.5 -70q-44 -14 -137 -14h-246q-14 0 -17 3.5t-3 17.5v79q0 14 3 17t17 3h41v445h-41q-14 0 -17 3.5t-3 16.5v81q0 13 3 16.5t17 3.5zM245 407h40q47 0 67.5 20
t20.5 64q0 40 -19.5 58.5t-65.5 18.5h-43v-161zM245 127h43q58 0 82 19.5t24 61.5q0 46 -23 64.5t-86 18.5h-40v-164z" />
    <glyph glyph-name="C" unicode="C" horiz-adv-x="543" 
d="M504 195v-142q0 -15 -33 -34q-59 -36 -160 -36q-128 0 -191 69q-88 94 -88 292q0 185 78 274q74 85 196 85t178 -55q12 -12 12 -23v-132q0 -10 -4 -13.5t-14 -3.5h-99q-10 0 -13 3.5t-3 13.5v70q-32 5 -51 5q-58 0 -86 -48t-28 -154q0 -135 29.5 -191.5t93.5 -56.5
q29 0 50 4v73q0 10 4 13.5t14 3.5h98q10 0 13.5 -3.5t3.5 -13.5z" />
    <glyph glyph-name="D" unicode="D" horiz-adv-x="623" 
d="M47 685h225q139 0 215 -55q98 -72 98 -282q0 -257 -146 -323q-56 -25 -146 -25h-246q-14 0 -17 3.5t-3 17.5v79q0 14 3 17t17 3h41v445l-41 1q-14 0 -17 3t-3 17v78q0 14 3 17.5t17 3.5zM252 132h34q78 0 105.5 45.5t27.5 162.5q0 116 -26.5 165.5t-107.5 49.5h-33v-423z
" />
    <glyph glyph-name="E" unicode="E" horiz-adv-x="528" 
d="M487 186v-166q0 -12 -3 -16t-15 -4h-422q-14 0 -17 3.5t-3 17.5v79q0 14 3 17t17 3h41v445h-41q-14 0 -17 3.5t-3 16.5v81q0 13 3 16.5t17 3.5h421q10 0 13 -3.5t3 -13.5v-161q0 -10 -3 -13.5t-13 -3.5h-97q-10 0 -13 3.5t-3 13.5v47h-103v-136h161q13 0 17 -3.5t4 -17.5
v-86q0 -13 -4 -17t-17 -4h-161v-160h106v55q0 11 3 14.5t13 3.5h96q10 0 13.5 -3.5t3.5 -14.5z" />
    <glyph glyph-name="F" unicode="F" horiz-adv-x="501" 
d="M484 669v-161q0 -10 -3 -13.5t-13 -3.5h-97q-10 0 -13 3.5t-3 13.5v47h-103v-142h161q13 0 17 -3t4 -17v-86q0 -13 -4 -17t-17 -4h-161v-166h56q14 0 17.5 -3t3.5 -17v-79q0 -14 -3.5 -17.5t-17.5 -3.5h-261q-14 0 -17 3.5t-3 17.5v79q0 14 3 17t17 3h41v445h-41
q-14 0 -17 3.5t-3 16.5v81q0 13 3 16.5t17 3.5h421q10 0 13 -3.5t3 -13.5z" />
    <glyph glyph-name="G" unicode="G" horiz-adv-x="599" 
d="M581 356v-83q0 -10 -3 -13.5t-13 -3.5h-38v-191q0 -11 -4 -15.5t-18 -14.5q-75 -52 -197 -52q-141 0 -208.5 90.5t-67.5 271.5q0 185 78 274q73 84 195 84q58 0 112.5 -15t82.5 -43q11 -11 11 -22v-129q0 -11 -3 -14t-13 -3h-101q-10 0 -13.5 3.5t-3.5 13.5v70
q-32 11 -62 11q-117 0 -117 -217q0 -130 26 -187q26 -56 95 -56q27 0 58 12v129h-63q-14 0 -17.5 3.5t-3.5 17.5v76q0 14 3.5 17t17.5 3h251q10 0 13 -3.5t3 -13.5z" />
    <glyph glyph-name="H" unicode="H" horiz-adv-x="672" 
d="M642 100v-79q0 -14 -3.5 -17.5t-17.5 -3.5h-242q-14 0 -17 3.5t-3 17.5v79q0 14 3 17t17 3h36v167h-162v-167h36q14 0 17.5 -3t3.5 -17v-79q0 -14 -3.5 -17.5t-17.5 -3.5h-242q-14 0 -17 3.5t-3 17.5v79q0 14 3 17t17 3h41v445h-41q-14 0 -17 3.5t-3 16.5v81q0 13 3 16.5
t17 3.5h242q14 0 17.5 -3t3.5 -17v-80q0 -14 -3.5 -17.5t-17.5 -3.5h-36v-145h162v145h-36q-14 0 -17 3.5t-3 16.5v81q0 13 3 16.5t17 3.5h242q14 0 17.5 -3t3.5 -17v-80q0 -14 -3.5 -17.5t-17.5 -3.5h-41v-445h41q14 0 17.5 -3t3.5 -17z" />
    <glyph glyph-name="I" unicode="I" horiz-adv-x="357" 
d="M323 100v-79q0 -14 -3.5 -17.5t-17.5 -3.5h-255q-14 0 -17 3.5t-3 17.5v79q0 14 3 17t17 3h44v445h-44q-14 0 -17 3t-3 17v81q0 13 3 16.5t17 3.5h255q14 0 17.5 -3.5t3.5 -16.5v-81q0 -14 -3.5 -17t-17.5 -3h-46v-445h46q14 0 17.5 -3t3.5 -17z" />
    <glyph glyph-name="J" unicode="J" horiz-adv-x="460" 
d="M406 666v-455q0 -66 -12.5 -107t-44.5 -70q-55 -51 -147 -51q-145 0 -185 120q-11 33 -11 100q0 18 11 18h122q11 0 11 -13v-7q0 -51 9.5 -70t37.5 -19q27 0 36.5 18t9.5 64v371h-136q-14 0 -17.5 3.5t-3.5 16.5v81q0 13 4 16.5t17 3.5h279q13 0 16.5 -3.5t3.5 -16.5z
" />
    <glyph glyph-name="K" unicode="K" horiz-adv-x="624" 
d="M611 102v-82q0 -12 -3.5 -16t-15.5 -4h-123q-16 0 -26 13l-196 254v-147h28q12 0 15.5 -3t3.5 -15v-82q0 -12 -3.5 -16t-15.5 -4h-233q-14 0 -17 3.5t-3 17.5v79q0 14 3 17t17 3h41v445h-41q-14 0 -17 3.5t-3 16.5v81q0 13 3 16.5t17 3.5h233q12 0 15.5 -3t3.5 -15v-82
q0 -12 -3.5 -16.5t-15.5 -4.5h-28v-147l189 258q7 10 23 10h116q12 0 15 -3t3 -15v-84q0 -12 -3 -15.5t-15 -3.5h-36l-168 -214l193 -231h28q12 0 15.5 -3t3.5 -15z" />
    <glyph glyph-name="L" unicode="L" horiz-adv-x="540" 
d="M526 177l-35 -160q-2 -11 -6.5 -14t-16.5 -3h-421q-14 0 -17 3.5t-3 17.5v79q0 14 3 17t17 3h41v445h-41q-14 0 -17 3.5t-3 16.5v81q0 13 3 16.5t17 3.5h250q13 0 17 -3.5t4 -16.5v-81q0 -13 -4 -16.5t-17 -3.5h-45v-426h125l17 65q4 13 8.5 15t17.5 -1l90 -17
q13 -2 16 -6.5t0 -17.5z" />
    <glyph glyph-name="M" unicode="M" horiz-adv-x="764" 
d="M730 102v-82q0 -12 -3.5 -16t-15.5 -4h-167q-12 0 -17 4t-5 16l-5 291q0 21 5 164q-16 -70 -41 -152l-49 -160q-4 -12 -7.5 -14.5t-15.5 -2.5h-73q-12 0 -15 2.5t-7 15.5l-44 155q-13 44 -38 156q2 -116 1 -171l-5 -284q0 -12 -3 -16t-15 -4h-164q-12 0 -15.5 4t-3.5 16
v82q0 12 3.5 15t15.5 3h35l24 445h-39q-12 0 -15.5 3.5t-3.5 15.5v84q0 12 3.5 15t15.5 3h191q12 0 15.5 -2.5t7.5 -13.5l71 -225q14 -46 25 -108q12 51 31 109l75 224q4 11 7.5 13.5t15.5 2.5h186q12 0 16 -3t4 -15v-84q0 -12 -4 -15.5t-16 -3.5h-40l24 -445h36
q12 0 15.5 -3t3.5 -15z" />
    <glyph glyph-name="N" unicode="N" horiz-adv-x="662" 
d="M644 666v-81q0 -13 -3.5 -16.5t-17.5 -3.5h-41v-544q0 -14 -3 -17.5t-17 -3.5h-91q-12 0 -16 2.5t-10 13.5l-171 311q-26 48 -53 120q9 -85 9 -117v-210h41q14 0 17 -3t3 -17v-79q0 -15 -2.5 -18t-16.5 -3h-228q-14 0 -16.5 3t-2.5 18v79q0 14 3 17t17 3h41v445h-41
q-14 0 -17 3.5t-3 16.5v81q0 13 3 16.5t17 3.5h168q12 0 15.5 -2t9.5 -13l155 -280q26 -47 54 -126q-8 92 -8 124v176h-41q-14 0 -17.5 3.5t-3.5 16.5v81q0 13 3.5 16.5t17.5 3.5h225q14 0 17.5 -3.5t3.5 -16.5z" />
    <glyph glyph-name="O" unicode="O" horiz-adv-x="590" 
d="M557 353q0 -370 -265 -370q-259 0 -259 370q0 71 13 130.5t42 110.5t82.5 80t126.5 29q260 0 260 -350zM389 344q0 234 -94 234q-93 0 -93 -238q0 -232 93 -232q94 0 94 236z" />
    <glyph glyph-name="P" unicode="P" horiz-adv-x="554" 
d="M47 686h241q73 0 115.5 -10t71.5 -35q58 -50 58 -149q0 -103 -65 -165t-173 -62h-43v-145h56q14 0 17.5 -3t3.5 -17v-79q0 -15 -2.5 -18t-16.5 -3h-264q-14 0 -16.5 3t-2.5 18v79q0 14 3 17t17 3h41v445h-41q-14 0 -17 3.5t-3 16.5v81q0 13 3 16.5t17 3.5zM252 394h28
q56 0 78 19.5t22 69.5q0 46 -21 64.5t-72 18.5h-35v-172z" />
    <glyph glyph-name="Q" unicode="Q" horiz-adv-x="590" 
d="M579 -8l-85 -74q-4 -4 -12 -4q-33 0 -110 80q-42 -13 -82 -13q-260 0 -260 367q0 72 12.5 131.5t40.5 112t81.5 82t127.5 29.5q262 0 262 -349q0 -192 -69 -282q20 -15 86 -60q19 -11 8 -20zM385 345q0 233 -93 233q-44 0 -69.5 -58.5t-25.5 -179.5q0 -232 95 -232
q93 0 93 237z" />
    <glyph glyph-name="R" unicode="R" horiz-adv-x="594" 
d="M594 102v-82q0 -12 -3 -16t-15 -4h-139q-9 0 -12 0.5t-6.5 3.5t-6.5 10l-132 261h-31v-155h32q12 0 15 -3t3 -15v-82q0 -12 -3 -16t-15 -4h-235q-14 0 -16.5 3t-2.5 18v79q0 14 3 17t17 3h41v445h-41q-14 0 -17 3.5t-3 16.5v81q0 13 3 16.5t17 3.5h242q72 0 112.5 -9.5
t70.5 -35.5q61 -52 61 -151q0 -129 -107 -189l108 -181h42q12 0 15 -3t3 -15zM249 393h29q56 0 77.5 20t21.5 70q0 46 -20.5 64.5t-71.5 18.5h-36v-173z" />
    <glyph glyph-name="S" unicode="S" horiz-adv-x="517" 
d="M330 497v63q-31 10 -60 10q-38 0 -58.5 -17t-20.5 -44q0 -23 16.5 -38t66.5 -39q88 -42 129 -78q39 -33 58 -68t19 -86q0 -96 -63.5 -154.5t-167.5 -58.5q-59 0 -117 14t-89 39q-11 9 -11 23v143q0 10 3 13.5t14 3.5h97q10 0 13.5 -3.5t3.5 -13.5v-69q44 -17 85 -17
q36 0 55.5 18.5t19.5 50.5q0 35 -21 52.5t-108 58.5q-69 33 -98 58q-64 53 -64 139q0 94 63 148t170 54q49 0 102 -13.5t82 -36.5q12 -11 12 -22v-130q0 -10 -3.5 -13.5t-14.5 -3.5h-95q-11 0 -14.5 3.5t-3.5 13.5z" />
    <glyph glyph-name="T" unicode="T" horiz-adv-x="514" 
d="M512 669v-196q0 -11 -3 -14t-14 -3h-74q-11 0 -14.5 3.5t-3.5 13.5v76h-63v-429h63q14 0 17.5 -3t3.5 -17v-79q0 -14 -3 -17.5t-17 -3.5h-292q-14 0 -17 3.5t-3 17.5v79q0 14 3.5 17t17.5 3h63v429h-63v-76q0 -11 -3.5 -14t-13.5 -3h-74q-11 0 -14.5 3.5t-3.5 13.5v196
q0 10 4 13.5t15 3.5h473q10 0 13 -3t3 -14z" />
    <glyph glyph-name="U" unicode="U" horiz-adv-x="677" 
d="M654 666v-81q0 -13 -3.5 -16.5t-16.5 -3.5h-42v-329q0 -142 -91 -206q-67 -47 -176 -47q-163 0 -216 99q-30 56 -30 150v333h-41q-13 0 -17 3.5t-4 16.5v81q0 13 3.5 16.5t17.5 3.5h243q13 0 16.5 -3.5t3.5 -16.5v-81q0 -13 -3.5 -16.5t-16.5 -3.5h-38v-324
q0 -73 20 -100.5t71 -27.5q52 0 75.5 29.5t23.5 96.5v326h-36q-13 0 -17 3.5t-4 16.5v81q0 13 3.5 16.5t17.5 3.5h237q13 0 16.5 -3.5t3.5 -16.5z" />
    <glyph glyph-name="V" unicode="V" horiz-adv-x="559" 
d="M577 668v-84q0 -12 -3.5 -15.5t-15.5 -3.5h-32l-164 -562q-3 -10 -7 -13t-16 -3h-134q-12 0 -15.5 2.5t-6.5 13.5l-157 562h-31q-12 0 -15.5 3.5t-3.5 15.5v84q0 12 3.5 15t15.5 3h158q19 0 22 -15l76 -362q8 -37 24 -145q3 16 11.5 70.5t13.5 74.5l87 362q3 11 5.5 13
t11.5 2h154q12 0 15.5 -3t3.5 -15z" />
    <glyph glyph-name="W" unicode="W" horiz-adv-x="799" 
d="M809 668v-84q0 -12 -3 -15.5t-15 -3.5h-26l-128 -560q-3 -11 -7 -14t-16 -3h-113q-13 0 -16.5 2.5t-5.5 14.5l-64 314q-9 42 -18 161q-12 -110 -24 -163l-71 -312q-3 -12 -6 -14.5t-16 -2.5h-114q-13 0 -16.5 2.5t-5.5 14.5l-119 560h-23q-12 0 -16 3.5t-4 15.5v84
q0 12 4 15t16 3h140q11 0 14.5 -3t5.5 -13l56 -305q10 -57 18 -159q18 138 20 146l71 314q3 13 6.5 16t16.5 3h99q7 0 10.5 -0.5t6 -4.5t3 -5.5t2.5 -10.5l66 -296q9 -41 21 -167q14 124 21 167l54 301q1 10 5 13.5t15 3.5h138q12 0 15 -3t3 -15z" />
    <glyph glyph-name="X" unicode="X" horiz-adv-x="566" 
d="M570 102v-82q0 -12 -3.5 -16t-15.5 -4h-140q-10 0 -12.5 2t-7.5 11l-85 160q-10 21 -24 60q-11 -31 -26 -60l-87 -160q-5 -9 -8 -11t-13 -2h-143q-12 0 -15 4t-3 16v82q0 11 3 14.5t15 3.5h42l145 243l-125 202h-45q-12 0 -16 3.5t-4 15.5v84q0 12 4 15t16 3h142
q11 0 14.5 -2.5t8.5 -11.5l67 -128q10 -18 27 -66q14 46 23 65l63 129q5 11 7.5 12.5t14.5 1.5h144q12 0 15 -3t3 -15v-84q0 -12 -3 -15.5t-15 -3.5h-46l-119 -204l140 -241h43q12 0 15.5 -3.5t3.5 -14.5z" />
    <glyph glyph-name="Y" unicode="Y" horiz-adv-x="522" 
d="M531 668v-84q0 -12 -3.5 -15.5t-15.5 -3.5h-22l-149 -284v-161h60q14 0 17.5 -3t3.5 -17v-79q0 -14 -3 -17.5t-17 -3.5h-284q-14 0 -16.5 3t-2.5 18v79q0 14 3 17t17 3h60v162l-150 283h-22q-12 0 -15.5 3.5t-3.5 15.5v84q0 12 3.5 15t15.5 3h131h9t5.5 -2.5t3 -3.5
t3.5 -8l74 -164q9 -19 29 -84q19 64 31 88l77 161q5 9 8 11t14 2h120q12 0 15.5 -3t3.5 -15z" />
    <glyph glyph-name="Z" unicode="Z" horiz-adv-x="525" 
d="M507 174l-35 -157q-3 -12 -7 -14.5t-16 -2.5h-402q-12 0 -15 4t-3 16v89l270 443h-137l-5 -62q-1 -11 -3.5 -14.5t-12.5 -3.5h-86q-10 0 -13.5 3.5t-3.5 14.5v179q0 10 3.5 13.5t14.5 3.5h401q14 0 17 -3.5t3 -16.5v-98l-262 -428h145l15 64q3 13 8.5 15t17.5 -2l92 -18
q12 -2 14.5 -8t-0.5 -17z" />
    <glyph glyph-name="bracketleft" unicode="[" horiz-adv-x="450" 
d="M385 -97v-87q0 -14 -4 -17.5t-17 -3.5h-227q-14 0 -17.5 3.5t-3.5 17.5v878q0 14 3.5 17.5t17.5 3.5h227q13 0 17 -3.5t4 -17.5v-87q0 -13 -4 -17t-17 -4h-90v-662h90q13 0 17 -4t4 -17z" />
    <glyph glyph-name="backslash" unicode="\" horiz-adv-x="526" 
d="M178 754l305 -815q6 -13 3.5 -18.5t-17.5 -5.5h-100q-21 0 -27 17l-304 815q-5 11 -2.5 17.5t17.5 6.5h99q19 0 26 -17z" />
    <glyph glyph-name="bracketright" unicode="]" horiz-adv-x="450" 
d="M334 694v-878q0 -14 -3 -17.5t-17 -3.5h-228q-13 0 -16.5 3.5t-3.5 17.5v87q0 13 3.5 17t16.5 4h91v662h-91q-13 0 -16.5 4t-3.5 17v87q0 14 3 17.5t17 3.5h228q14 0 17 -3.5t3 -17.5z" />
    <glyph glyph-name="asciicircum" unicode="^" horiz-adv-x="532" 
d="M367 672l151 -302q6 -11 4 -15.5t-15 -4.5h-121q-11 0 -15.5 3t-9.5 15l-93 193l-92 -193q-5 -12 -9.5 -15t-15.5 -3h-122q-13 0 -15 4.5t4 15.5l150 301q1 1 2 4q13 13 21 14h153q10 0 13.5 -3t9.5 -14z" />
    <glyph glyph-name="underscore" unicode="_" horiz-adv-x="551" 
d="M548 -62v-91q0 -14 -3 -17.5t-17 -3.5h-504q-14 0 -17.5 3.5t-3.5 17.5v91q0 13 3.5 17t17.5 4h504q14 0 17 -4t3 -17z" />
    <glyph glyph-name="grave" unicode="`" horiz-adv-x="457" 
d="M329 622l-25 -50q-6 -13 -12 -13q-1 0 -13 4l-207 80q-14 6 -14 12q0 3 5 15l42 85q7 14 13 14q4 0 15 -6l188 -113q14 -8 14 -14q0 -2 -6 -14z" />
    <glyph glyph-name="a" unicode="a" horiz-adv-x="517" 
d="M493 102v-89q0 -8 -3 -10.5t-11 -2.5h-137q-14 0 -19 10q-2 4 -5 14t-4 14q-56 -52 -124 -52q-75 0 -118 42t-43 113q0 100 85 141q66 31 169 31h9v30q0 29 -13 41t-51 12q-39 0 -117 -30q-16 -5 -20 7l-27 80q-2 7 -2 10.5t2.5 6t9.5 6.5q67 35 175 35q91 0 138 -40
q48 -40 48 -125v-175q0 -27 6 -56h38q14 0 14 -13zM292 121v98h-10q-115 0 -115 -71q0 -27 16 -44.5t40 -17.5q36 0 69 35z" />
    <glyph glyph-name="b" unicode="b" horiz-adv-x="558" 
d="M226 704v-229q55 36 110 36q91 0 139.5 -64.5t48.5 -182.5q0 -136 -58 -206q-63 -75 -163 -75q-52 0 -99 40q-9 -22 -15.5 -29t-15.5 -7q-3 0 -7 1q-3 1 -7 1l-98 16q-16 3 -9 20q20 48 20 108v467h-44q-8 0 -11 2.5t-3 10.5v91q0 13 14 13h184q14 0 14 -13zM226 376
v-267q26 -16 57 -16q43 0 67.5 42t24.5 122q0 147 -74 147q-35 0 -75 -28z" />
    <glyph glyph-name="c" unicode="c" horiz-adv-x="446" 
d="M386 119l28 -73q4 -9 3.5 -13.5t-8.5 -10.5q-23 -19 -66.5 -29t-83.5 -10q-112 0 -171.5 67t-59.5 188q0 126 65.5 199.5t180.5 73.5q90 0 131 -35q9 -7 9 -20v-131q0 -8 -2.5 -10.5t-10.5 -2.5h-97q-8 0 -10.5 2.5t-2.5 10.5v68q-16 2 -17 2q-47 0 -69 -35.5t-22 -115.5
q0 -77 22.5 -110t70.5 -33q35 0 86 22q19 8 24 -4z" />
    <glyph glyph-name="d" unicode="d" horiz-adv-x="555" 
d="M535 104v-91q0 -8 -3 -10.5t-11 -2.5h-148q-10 0 -14 4.5t-10 23.5l-2 6q-64 -51 -135 -51q-79 0 -124 51q-60 69 -60 198q0 82 12.5 131.5t45.5 87.5q53 60 148 60q47 0 88 -22v111h-48q-8 0 -11 2.5t-3 10.5v91q0 13 14 13h189q8 0 10.5 -2.5t2.5 -10.5v-534
q0 -28 5 -53h40q14 0 14 -13zM322 122v267q-31 14 -69 14q-43 0 -60.5 -33t-17.5 -122q0 -85 16.5 -119.5t52.5 -34.5q49 0 78 28z" />
    <glyph glyph-name="e" unicode="e" horiz-adv-x="504" 
d="M419 128l35 -72q4 -9 2 -13t-12 -11q-76 -49 -180 -49q-116 0 -176 67.5t-60 192.5q0 120 62.5 194t168.5 74q212 0 212 -280q0 -12 -4.5 -16t-17.5 -4h-273q3 -57 26.5 -84t69.5 -27q60 0 123 34q17 8 24 -6zM177 312h143q-2 55 -17.5 76.5t-49.5 21.5
q-35 0 -51.5 -21.5t-24.5 -76.5z" />
    <glyph glyph-name="f" unicode="f" horiz-adv-x="393" 
d="M411 675l-22 -83q-4 -16 -22 -8q-42 18 -68 18q-27 0 -36.5 -14.5t-9.5 -52.5v-41h115q12 0 15 -3.5t0 -16.5l-17 -80q-2 -12 -17 -12h-96v-265h65q14 0 14 -13v-91q0 -8 -3 -10.5t-11 -2.5h-276q-8 0 -10.5 2.5t-2.5 10.5v91q0 8 2.5 10.5t10.5 2.5h59v265h-65
q-11 0 -13.5 3t-2.5 16v78q0 9 3 12t14 3h64v40q0 113 67 160q43 30 109 30q74 0 124 -28q9 -5 10.5 -8t-0.5 -13z" />
    <glyph glyph-name="g" unicode="g" horiz-adv-x="527" 
d="M396 511l90 -26q13 -4 6 -22q-1 -3 -2 -5q-22 -60 -22 -117v-149q0 -82 3 -155q1 -23 1 -59q0 -91 -53.5 -139t-153.5 -48q-50 0 -108.5 13.5t-97.5 35.5q-14 8 -10 22l26 86q4 13 25 4q86 -39 155 -39q37 0 51 14t14 54q0 17 -3 56q-51 -31 -105 -31q-87 0 -134 62.5
t-47 174.5q0 123 52 195.5t147 72.5q64 0 113 -42q5 11 19 34q10 16 34 8zM315 141v231q-31 22 -62 22q-35 0 -55 -36t-20 -107q0 -139 66 -139q42 0 71 29z" />
    <glyph glyph-name="h" unicode="h" horiz-adv-x="585" 
d="M559 104v-91q0 -8 -2.5 -10.5t-10.5 -2.5h-179q-10 0 -12.5 2.5t-2.5 12.5v316q0 35 -11 50.5t-35 15.5q-38 0 -75 -33v-351q0 -8 -2.5 -10.5t-10.5 -2.5h-181q-8 0 -10.5 2.5t-2.5 10.5v91q0 8 2.5 10.5t10.5 2.5h41v483h-44q-8 0 -11 2.5t-3 10.5v91q0 13 14 13h183
q14 0 14 -14v-242q54 51 128 51q96 0 128 -66q18 -38 18 -93v-236h41q8 0 10.5 -2.5t2.5 -10.5z" />
    <glyph glyph-name="i" unicode="i" horiz-adv-x="334" 
d="M265 650q0 -39 -27.5 -67t-67.5 -28t-67.5 28t-27.5 67t28 67t68 28q39 0 66.5 -28t27.5 -67zM321 104v-91q0 -13 -15 -13h-267q-8 0 -10.5 2.5t-2.5 10.5v91q0 8 2.5 10.5t10.5 2.5h58v259h-55q-10 0 -13 3t-3 13v86q0 11 2.5 13.5t13.5 2.5h193q11 0 13.5 -2.5
t2.5 -13.5v-361h55q15 0 15 -13z" />
    <glyph glyph-name="j" unicode="j" horiz-adv-x="319" 
d="M268 650q0 -39 -27.5 -67t-67.5 -28t-67.5 28t-27.5 67t28 67t68 28q39 0 66.5 -28t27.5 -67zM255 478v-473q0 -74 -8 -116t-36 -73q-47 -52 -143 -52q-58 0 -115 24q-14 6 -10 22l28 91q2 9 16 4q36 -16 66 -16q26 0 36.5 22t10.5 95v370h-65q-11 0 -13.5 3t-2.5 13v86
q0 11 2.5 13.5t13.5 2.5h203q11 0 14 -2.5t3 -13.5z" />
    <glyph glyph-name="k" unicode="k" horiz-adv-x="562" 
d="M545 104v-91q0 -8 -2.5 -10.5t-10.5 -2.5h-127q-10 0 -17 8l-155 201v-196q0 -8 -2.5 -10.5t-10.5 -2.5h-183q-8 0 -10.5 2.5t-2.5 10.5v91q0 8 2.5 10.5t10.5 2.5h41v483h-44q-8 0 -11 2.5t-3 10.5v91q0 13 14 13h185q14 0 14 -14v-369l153 157q12 12 24 12h108
q14 0 14 -13v-91q0 -8 -3 -10.5t-11 -2.5h-46l-120 -108l136 -161h44q8 0 10.5 -2.5t2.5 -10.5z" />
    <glyph glyph-name="l" unicode="l" horiz-adv-x="332" 
d="M301 119l23 -91q3 -13 -8 -19q-43 -26 -106 -26q-83 0 -116 58q-15 25 -19 52t-4 80v427h-45q-8 0 -10.5 2.5t-2.5 10.5v91q0 8 2.5 10.5t10.5 2.5h187q8 0 10.5 -2.5t2.5 -10.5v-547q0 -23 4.5 -32t16.5 -9q18 0 40 8q11 4 14 -5z" />
    <glyph glyph-name="m" unicode="m" horiz-adv-x="840" 
d="M814 104v-91q0 -8 -3 -10.5t-13 -2.5h-174q-11 0 -13.5 3t-2.5 16v321q0 60 -36 60q-31 0 -72 -35v-349q0 -11 -2.5 -13.5t-12.5 -2.5h-117q-12 0 -14.5 3t-2.5 16v316q0 37 -7 50.5t-28 13.5q-32 0 -73 -34v-349q0 -11 -3 -13.5t-13 -2.5h-177q-8 0 -10.5 2.5t-2.5 10.5
v91q0 8 2.5 10.5t10.5 2.5h41v207q0 29 -6 56h-42q-8 0 -10.5 2.5t-2.5 10.5v88q0 14 13 14h158q10 0 14 -8t12 -38q70 62 140 62q75 0 115 -65q71 65 148 65q70 0 101 -43q29 -41 29 -128v-223h40q14 0 14 -13z" />
    <glyph glyph-name="n" unicode="n" horiz-adv-x="600" 
d="M573 104v-91q0 -8 -3 -10.5t-11 -2.5h-179q-11 0 -13 2.5t-2 13.5v316q0 66 -45 66q-36 0 -75 -34v-351q0 -8 -2.5 -10.5t-12.5 -2.5h-180q-8 0 -10.5 2.5t-2.5 10.5v91q0 8 2.5 10.5t10.5 2.5h41v206q0 29 -6 57h-42q-8 0 -10.5 2.5t-2.5 10.5v88q0 8 2.5 11t10.5 3h155
q12 0 28 -35l2 -4l2 -4q67 59 144 59q75 0 110 -40t35 -123v-231h40q14 0 14 -13z" />
    <glyph glyph-name="o" unicode="o" horiz-adv-x="521" 
d="M492 246q0 -120 -61.5 -191.5t-168.5 -71.5q-111 0 -171.5 70.5t-60.5 194.5q0 121 62 192t171 71q108 0 168.5 -71t60.5 -194zM335 247q0 83 -17.5 118t-56.5 35t-57 -35t-18 -119q0 -83 18 -117.5t57 -34.5t56.5 35t17.5 118z" />
    <glyph glyph-name="p" unicode="p" horiz-adv-x="553" 
d="M30 495h155q9 0 13 -5t11 -25q59 46 124 46q93 0 140.5 -68t47.5 -191q0 -135 -48 -202t-150 -67q-48 0 -91 22v-90h43q8 0 11 -3t3 -11v-89q0 -15 -14 -15h-238q-13 0 -13 15v89q0 8 2.5 11t10.5 3h41v413q0 20 -6 49h-42q-8 0 -11 3t-3 11v90q0 8 3 11t11 3zM232 367
v-266q29 -15 60 -15q43 0 61 35t18 127q0 149 -70 149q-34 0 -69 -30z" />
    <glyph glyph-name="q" unicode="q" horiz-adv-x="534" 
d="M528 -101v-87q0 -15 -14 -15h-238q-14 0 -14 15v89q0 8 3 11t11 3h43v99q-44 -31 -100 -31q-93 0 -142 65.5t-49 186.5q0 128 51.5 202t147.5 74q64 0 115 -43q23 44 42 44q1 0 3.5 -0.5t5.5 -1.5t5 -1l94 -22q15 -3 7 -19q-25 -59 -25 -127v-426h40q14 0 14 -16z
M319 117v249q-33 25 -68 25q-72 0 -72 -155q0 -150 69 -150q41 0 71 31z" />
    <glyph glyph-name="r" unicode="r" horiz-adv-x="412" 
d="M222 441l9 11q48 59 109 59q47 0 69 -27q6 -7 -1 -22l-34 -89q-5 -13 -15 -8q-30 14 -47 14q-27 0 -65 -39v-223h46q14 0 14 -13v-91q0 -8 -3 -10.5t-11 -2.5h-243q-8 0 -10.5 2.5t-2.5 10.5v91q0 8 2.5 10.5t10.5 2.5h41v204q0 31 -5 56h-43q-8 0 -10.5 3t-2.5 11v90
q0 8 2.5 11t10.5 3h141q14 0 21 -10t17 -44z" />
    <glyph glyph-name="s" unicode="s" horiz-adv-x="443" 
d="M268 362v38q-17 4 -30 4q-60 0 -60 -42q0 -19 13.5 -28.5t55.5 -25.5q98 -37 128 -69q34 -37 34 -100q0 -72 -50.5 -114t-132.5 -42q-99 0 -181 46q-11 6 -11 21v97q0 8 2.5 10.5t10.5 2.5h90q8 0 10.5 -2.5t2.5 -12.5v-38q36 -11 64 -11q55 0 55 41q0 14 -10 23.5
t-23 15.5t-49 19q-82 31 -110 60q-36 38 -36 100q0 69 53.5 112.5t136.5 43.5q98 0 145 -40q9 -8 9 -19v-90q0 -14 -14 -14h-89q-8 0 -11 3t-3 11z" />
    <glyph glyph-name="t" unicode="t" horiz-adv-x="379" 
d="M359 123l20 -85q3 -11 1 -16.5t-14 -10.5q-63 -28 -132 -28q-108 0 -138 80q-13 35 -13 84v235h-67q-12 0 -14.5 2t-2.5 15v77q0 13 2.5 15.5t15.5 2.5h66v128q0 10 3 13t13 4l120 12q12 1 14.5 -0.5t2.5 -12.5v-144h118q12 0 14 -3.5t0 -12.5l-15 -82q-2 -14 -19 -14
h-98v-229q0 -41 32 -41q23 0 72 20q15 7 19 -9z" />
    <glyph glyph-name="u" unicode="u" horiz-adv-x="584" 
d="M556 102v-89q0 -8 -2.5 -10.5t-10.5 -2.5h-148q-12 0 -16 5.5t-12 31.5q-58 -54 -132 -54q-80 0 -121 43q-26 27 -32.5 57.5t-6.5 91.5v202h-41q-8 0 -11 3t-3 11v89q0 8 3 11t11 3h176q12 0 15.5 -2.5t3.5 -13.5v-306q0 -43 10.5 -60t37.5 -17q38 0 71 32v351q0 10 2 13
t11 3h121q13 0 16 -2.5t3 -13.5v-305q0 -35 6 -58h36q8 0 10.5 -2.5t2.5 -10.5z" />
    <glyph glyph-name="v" unicode="v" horiz-adv-x="486" 
d="M493 480v-89q0 -8 -3 -11t-11 -3h-31l-133 -383q-3 -9 -6 -11.5t-13 -2.5h-115q-9 0 -12.5 2.5t-6.5 11.5l-133 383h-29q-8 0 -10.5 3t-2.5 11v89q0 8 2.5 11t10.5 3h146q10 0 13 -2t5 -12l56 -215q12 -46 24 -126q13 81 25 126l60 215q3 9 6.5 11.5t13.5 2.5h130
q8 0 11 -3t3 -11z" />
    <glyph glyph-name="w" unicode="w" horiz-adv-x="707" 
d="M703 480v-89q0 -8 -2.5 -11t-10.5 -3h-31l-110 -371q-3 -9 -6 -11t-13 -2h-112q-11 0 -14.5 2.5t-4.5 11.5l-37 233q-2 12 -11 103q-7 -59 -16 -104l-48 -232q-2 -10 -5 -12t-13 -2h-112q-10 0 -12.5 2t-5.5 12l-97 370h-27q-8 0 -11 3t-3 11v89q0 14 14 14h135
q11 0 14 -2t5 -12l39 -205q7 -36 16 -128q11 101 15 121l43 211q2 10 5 12.5t13 2.5h109q10 0 13.5 -3t5.5 -13l39 -205q7 -34 15 -126q8 88 18 132l43 201q2 10 5 12t14 2h128q13 0 13 -14z" />
    <glyph glyph-name="x" unicode="x" horiz-adv-x="504" 
d="M487 103v-90q0 -8 -2.5 -10.5t-10.5 -2.5h-113q-15 0 -22 10l-61 89q-3 5 -29 51q-3 -5 -13 -24t-16 -27l-63 -88q-9 -11 -22 -11h-112q-8 0 -11 2.5t-3 10.5v90q0 8 3 10.5t11 2.5h37l99 133l-92 128h-39q-9 0 -11.5 3t-2.5 13v87q0 14 14 14h119q15 0 22 -11l52 -82
q10 -16 26 -49q15 25 31 49l58 83q7 10 23 10h111q13 0 13 -14v-89q0 -8 -2.5 -11t-10.5 -3h-33l-97 -128l96 -133h38q8 0 10.5 -2.5t2.5 -10.5z" />
    <glyph glyph-name="y" unicode="y" horiz-adv-x="496" 
d="M504 480v-89q0 -8 -3 -11t-11 -3h-30l-108 -386q-18 -65 -33.5 -102.5t-42.5 -64.5q-47 -45 -124 -45q-32 0 -77.5 12.5t-67.5 31.5q-10 8 -3 23l39 79q6 11 18 4q54 -27 80 -27q28 0 42.5 12t23.5 44l12 42h-37q-10 0 -13.5 2t-6.5 11l-130 364h-28q-8 0 -10.5 3
t-2.5 11v89q0 8 2.5 11t10.5 3h141q10 0 13 -2.5t5 -12.5l66 -250q8 -31 25 -135q17 101 22 127l57 259q3 14 19 14h138q14 0 14 -14z" />
    <glyph glyph-name="z" unicode="z" horiz-adv-x="468" 
d="M456 123l-46 -111q-5 -12 -18 -12h-348q-11 0 -14 3t-3 14v80l203 255q6 8 27 22q-10 -2 -40 -2h-154q-11 0 -13.5 3t-2.5 13v90q0 10 3 13t13 3h347q11 0 14 -3.5t3 -14.5v-82l-200 -248q-5 -6 -29 -24q36 3 44 3h97l24 44q4 9 16 4l70 -29q13 -6 7 -21z" />
    <glyph glyph-name="braceleft" unicode="{" 
d="M428 -86v-91q0 -9 -1.5 -13t-5 -5t-14.5 -2q-33 -3 -64 -3q-91 0 -131 37.5t-40 121.5v155q0 60 -36 71q-8 3 -10.5 4t-6 3.5t-4 6.5t-0.5 10v88q0 11 4 15t17 8q36 11 36 61v157q0 83 40 119.5t131 36.5q40 0 64 -2q14 -1 17.5 -4t3.5 -16v-91q0 -14 -3 -16.5t-18 -3.5
l-31 -1q-31 -1 -40.5 -12t-9.5 -46v-131q0 -47 -13.5 -73.5t-49.5 -49.5q63 -40 63 -125v-129q0 -39 11.5 -49.5t55.5 -10.5h21q14 0 14 -20z" />
    <glyph glyph-name="bar" unicode="|" 
d="M337 751v-988q0 -14 -3 -17t-17 -3h-113q-14 0 -17.5 3t-3.5 17v988q0 13 3.5 16.5t17.5 3.5h113q14 0 17 -3.5t3 -16.5z" />
    <glyph glyph-name="braceright" unicode="}" 
d="M427 296v-88q0 -12 -3.5 -15t-17.5 -8q-36 -11 -36 -71v-155q0 -84 -40.5 -121.5t-131.5 -37.5q-30 0 -63 3q-11 1 -14.5 2t-5 5t-1.5 13v91q0 8 0.5 11.5t3.5 6t9 2.5h22q44 0 55.5 10.5t11.5 49.5v129q0 85 63 125q-36 23 -49.5 49.5t-13.5 73.5v131q0 35 -9.5 46.5
t-40.5 11.5h-31q-14 0 -17.5 3.5t-3.5 17.5v91q0 13 3.5 16t17.5 4q24 2 63 2q91 0 131.5 -36.5t40.5 -119.5v-157q0 -50 36 -61q13 -4 17 -8t4 -16z" />
    <glyph glyph-name="asciitilde" unicode="~" horiz-adv-x="700" 
d="M548 760l49 -28q11 -6 11 -11t-7 -17q-40 -78 -86 -102q-32 -17 -73 -17q-34 0 -101 26l-49 19q-23 9 -43 9q-33 0 -62 -47q-7 -12 -11.5 -12.5t-16.5 6.5l-47 28q-11 6 -12 11t5 17q29 65 61 95.5t92 30.5q41 0 108 -26q68 -27 90 -27q39 0 64 37q8 12 12.5 13t15.5 -5z
" />
    <glyph glyph-name="sterling" unicode="&#xa3;" horiz-adv-x="561" 
d="M546 110l-18 -93q-4 -17 -23 -17h-461q-13 0 -16.5 3.5t-3.5 17.5v91q0 14 3.5 17.5t16.5 3.5h72q8 32 8 71q0 27 -11 80h-79q-14 0 -17.5 3.5t-3.5 16.5v69q0 14 4 17.5t17 3.5h55q-10 39 -10 78q0 94 67 150t176 56q100 0 174 -46q20 -13 13 -29l-41 -81q-8 -15 -34 -2
q-65 30 -110 30q-44 0 -68.5 -23t-24.5 -63q0 -27 12 -68h137q13 0 17 -3.5t4 -17.5v-71q0 -13 -3.5 -16.5t-17.5 -3.5h-116q13 -39 13 -80q0 -36 -7 -71h258q15 0 17.5 -4.5t0.5 -18.5z" />
    <glyph glyph-name="currency" unicode="&#xa4;" horiz-adv-x="703" 
d="M674 141l-60 -62q-9 -9 -13.5 -9t-13.5 8l-91 91q-65 -44 -139 -44q-71 0 -140 43l-93 -95q-7 -6 -10.5 -5.5t-11.5 8.5l-63 64q-7 8 -7 12t8 12l87 87q-40 58 -40 135q0 72 41 133l-85 83q-7 7 -6 11t10 13l63 63q10 6 14 4.5t13 -10.5l81 -80q64 42 139 42
q72 0 136 -41l85 84q7 7 11.5 7t15.5 -10l60 -59q12 -10 -1 -23l-80 -83q42 -65 42 -135q0 -71 -40 -133l86 -88q8 -9 8 -13t-6 -10zM485 385q0 54 -36.5 90.5t-91.5 36.5t-91 -36.5t-36 -90.5q0 -53 36.5 -90.5t90.5 -37.5t91 37.5t37 90.5z" />
    <glyph glyph-name="section" unicode="&#xa7;" horiz-adv-x="558" 
d="M291 516l85 -43q65 -33 93 -67q29 -35 29 -83q0 -92 -93 -143q71 -45 71 -123q0 -70 -57.5 -121t-135.5 -51q-109 0 -198 54q-21 13 -13 31l35 85q6 13 19 5q95 -56 151 -56q49 0 49 38q0 20 -16 32.5t-66 35.5q-93 44 -121 66q-58 45 -58 112q0 101 99 147
q-34 22 -50.5 46.5t-16.5 63.5q0 71 56.5 117t140.5 46q89 0 164 -49q15 -10 7 -25l-36 -75q-7 -14 -21 -6q-78 44 -110 44q-53 0 -53 -36q0 -14 10 -23t36 -22zM354 305q0 21 -16.5 34t-62.5 37q-38 -20 -52 -34t-14 -35t18 -34.5t68 -36.5q33 20 46 34t13 35z" />
    <glyph glyph-name="dieresis" unicode="&#xa8;" horiz-adv-x="507" 
d="M442 637q0 -35 -24.5 -60t-59.5 -25t-59.5 25t-24.5 60t24.5 60t59.5 25t59.5 -25t24.5 -60zM233 637q0 -35 -24.5 -60t-59.5 -25t-59.5 25t-24.5 60t24.5 60t59.5 25t59.5 -25t24.5 -60z" />
    <glyph glyph-name="copyright" unicode="&#xa9;" horiz-adv-x="788" 
d="M733 343q0 -148 -102 -253t-246 -105t-246 105t-102 253q0 150 102 254t248 104q143 0 244.5 -105t101.5 -253zM652 343q0 121 -78 205t-190 84q-109 0 -187 -85t-78 -204t78 -203.5t188 -84.5t188.5 84.5t78.5 203.5zM516 254v-83q0 -10 -20 -22q-38 -24 -101 -24
q-174 0 -174 219q0 110 51 165q47 50 120 50q75 0 111 -33q9 -7 9 -14v-79q0 -10 -12 -10h-62q-7 0 -8.5 2t-1.5 8v41q-18 3 -33 3q-35 0 -52.5 -27.5t-17.5 -92.5q0 -83 18.5 -115.5t60.5 -32.5q21 0 30 3v42q0 10 11 10h60q11 0 11 -10z" />
    <glyph glyph-name="guillemotleft" unicode="&#xab;" horiz-adv-x="638" 
d="M468 244l114 -177q6 -9 6 -16q0 -8 -12 -13l-85 -36q-12 -5 -15 -5q-5 0 -12 10l-166 229q-6 9 -6 14t6 14l166 223q9 10 13 10q2 0 14 -5l83 -40q12 -5 12 -13q0 -5 -6 -16zM214 244l114 -177q6 -9 6 -16q0 -8 -12 -13l-85 -36q-12 -5 -15 -5q-6 0 -13 10l-164 229
q-7 10 -7 15t6 13l165 223q9 10 13 10q3 0 15 -5l83 -40q12 -5 12 -13q0 -5 -6 -16z" />
    <glyph glyph-name="logicalnot" unicode="&#xac;" 
d="M499 266v-245q0 -14 -3.5 -17.5t-17.5 -3.5h-113q-14 0 -17.5 3.5t-3.5 17.5v129h-302q-14 0 -17 3.5t-3 17.5v95q0 13 3 17t17 4h436q14 0 17.5 -4t3.5 -17z" />
    <glyph glyph-name="registered" unicode="&#xae;" horiz-adv-x="769" 
d="M733 343q0 -148 -102 -253t-246 -105t-246 105t-102 253q0 150 102 254t248 104q143 0 244.5 -105t101.5 -253zM652 343q0 121 -78 205t-190 84q-109 0 -187 -85t-78 -204t78 -203.5t188 -84.5t188.5 84.5t78.5 203.5zM560 205v-49q0 -8 -3 -10.5t-11 -2.5h-72
q-12 0 -16 9l-78 152h-14v-147q0 -9 -2.5 -11.5t-11.5 -2.5h-108q-9 0 -11.5 2.5t-2.5 11.5v47q0 9 2 11t12 2h22v256h-22q-9 0 -11.5 3t-2.5 11v48q0 8 2.5 11t11.5 3h143q78 0 110 -27q37 -31 37 -90q0 -77 -63 -112l62 -103h13q8 0 11 -2t3 -10zM366 378h14q32 0 44.5 11
t12.5 39q0 26 -11.5 36t-40.5 10h-19v-96z" />
    <glyph glyph-name="degree" unicode="&#xb0;" 
d="M417 528q0 -63 -46 -106t-111 -43t-110.5 43t-45.5 106t45.5 107t110.5 44t111 -44t46 -107zM326 527q0 27 -19.5 46t-46.5 19t-46 -18.5t-19 -45.5t19 -46t46 -19t46.5 18.5t19.5 45.5z" />
    <glyph glyph-name="plusminus" unicode="&#xb1;" 
d="M489 416v-99q0 -14 -3.5 -17.5t-17.5 -3.5h-131v-130q0 -14 -3 -17.5t-17 -3.5h-113q-14 0 -17.5 3.5t-3.5 17.5v130h-131q-14 0 -17 3.5t-3 17.5v99q0 13 3 16.5t17 3.5h131v131q0 13 3.5 16.5t17.5 3.5h113q14 0 17 -3.5t3 -17.5v-130h131q14 0 17.5 -3.5t3.5 -16.5z
M499 75v-96q0 -14 -3.5 -17t-17.5 -3h-436q-14 0 -17 3t-3 17v96q0 13 3 17t17 4h436q14 0 17.5 -4t3.5 -17z" />
    <glyph glyph-name="acute" unicode="&#xb4;" horiz-adv-x="513" 
d="M356 755l42 -85q5 -10 5 -14q0 -8 -15 -14l-206 -79q-7 -3 -13 -3q-9 0 -14 13l-24 49q-5 10 -5 14q0 6 14 14l188 113q11 6 15 6q6 0 13 -14z" />
    <glyph glyph-name="mu" unicode="&#xb5;" horiz-adv-x="548" 
d="M486 494v-363q0 -65 19 -103q9 -15 -4 -18l-106 -22q-5 -1 -12 -1q-18 0 -32 49q-31 -29 -58.5 -41t-67.5 -12l-13 2v-159q0 -10 -2 -13t-10 -4l-127 -19q-9 -1 -12 2.5t-3 14.5v665q0 11 2 14.5t12 4.5l121 18q13 2 16 -0.5t3 -14.5v-326q0 -40 10.5 -56.5t38.5 -16.5
q38 0 73 32v346q0 11 2 14.5t12 4.5l119 17q13 2 16 0t3 -15z" />
    <glyph glyph-name="mu" unicode="&#x3bc;" horiz-adv-x="548" 
d="M486 494v-363q0 -65 19 -103q9 -15 -4 -18l-106 -22q-5 -1 -12 -1q-18 0 -32 49q-31 -29 -58.5 -41t-67.5 -12l-13 2v-159q0 -10 -2 -13t-10 -4l-127 -19q-9 -1 -12 2.5t-3 14.5v665q0 11 2 14.5t12 4.5l121 18q13 2 16 -0.5t3 -14.5v-326q0 -40 10.5 -56.5t38.5 -16.5
q38 0 73 32v346q0 11 2 14.5t12 4.5l119 17q13 2 16 0t3 -15z" />
    <glyph glyph-name="paragraph" unicode="&#xb6;" horiz-adv-x="702" 
d="M678 666v-76q0 -13 -3.5 -16.5t-16.5 -3.5h-41v-736q0 -14 -3 -17t-17 -3h-79q-11 0 -16 1t-8 5.5t-3 13.5v736h-82v-736q0 -14 -3 -17t-17 -3h-89q-13 0 -16.5 3t-3.5 17v320q-24 -6 -48 -6q-108 0 -169 69t-61 194q0 188 117 247q34 17 68.5 22.5t102.5 5.5h368
q13 0 16.5 -3.5t3.5 -16.5zM280 265v304q-73 0 -98.5 -33t-25.5 -109q0 -92 23 -129.5t69 -37.5q12 0 32 5z" />
    <glyph glyph-name="guillemotright" unicode="&#xbb;" horiz-adv-x="633" 
d="M597 236l-165 -229q-9 -10 -13 -10q-3 0 -15 5l-84 36q-13 6 -13 13q0 5 7 16l115 177l-113 179q-6 10 -6 16q0 8 12 13l82 40q9 5 15 5q4 0 13 -10l165 -223q6 -9 6 -14t-6 -14zM179 487l165 -223q6 -7 6 -13q0 -5 -7 -15l-164 -229q-9 -10 -13 -10q-3 0 -15 5l-84 36
q-14 6 -14 13q0 4 7 16l115 177l-112 179q-6 10 -6 16q0 8 12 13l82 40q9 5 15 5q4 0 13 -10z" />
    <glyph glyph-name="divide" unicode="&#xf7;" 
d="M348 476q0 -36 -26 -61.5t-62 -25.5t-61.5 25.5t-25.5 61.5t25.5 62t61.5 26t62 -26t26 -62zM499 325v-94q0 -14 -3.5 -17t-17.5 -3h-436q-14 0 -17 3t-3 17v94q0 13 3 17t17 4h436q14 0 17.5 -4t3.5 -17zM348 80q0 -36 -26 -61t-62 -25t-61.5 25t-25.5 61t25.5 62
t61.5 26t62 -26t26 -62z" />
    <glyph glyph-name="dotlessi" unicode="&#x131;" horiz-adv-x="334" 
d="M321 104v-91q0 -13 -15 -13h-267q-8 0 -10.5 2.5t-2.5 10.5v91q0 8 2.5 10.5t10.5 2.5h58v259h-55q-10 0 -13 3t-3 13v86q0 11 2.5 13.5t13.5 2.5h193q11 0 13.5 -2.5t2.5 -13.5v-361h55q15 0 15 -13z" />
    <glyph glyph-name="florin" unicode="&#x192;" horiz-adv-x="547" 
d="M562 675l-27 -86q-5 -14 -20 -8q-43 16 -57 16q-27 0 -37.5 -16.5t-18.5 -55.5l-6 -29h105q12 0 15 -4t0 -17l-16 -74q-4 -18 -22 -18h-105l-77 -385q-23 -110 -74 -156q-53 -47 -137 -47q-53 0 -87 18q-10 6 -11.5 10t1.5 14l23 81q3 13 20 9q22 -5 40 -5q34 0 50.5 18
t28.5 79l74 364h-62q-13 0 -16 3.5t-1 17.5l13 72q2 13 5.5 16.5t15.5 3.5h70l9 45q19 99 57 134q47 44 135 44q69 0 106 -24q10 -7 6 -20z" />
    <glyph glyph-name="dotaccent" unicode="&#x2d9;" horiz-adv-x="506" 
d="M346 638q0 -38 -27.5 -65.5t-65.5 -27.5q-39 0 -66 27t-27 66t27 65.5t66 26.5t66 -26.5t27 -65.5z" />
    <glyph glyph-name="Delta" unicode="&#x394;" horiz-adv-x="591" 
d="M384 671l203 -647q7 -24 -15 -24h-546q-14 0 -17.5 4.5t0.5 14.5l206 654q3 13 15 13h138q10 0 16 -15zM391 132l-68 289q-15 55 -24 132q-9 -77 -24 -132l-68 -289h184z" />
    <glyph glyph-name="Delta" unicode="&#x2206;" horiz-adv-x="591" 
d="M384 671l203 -647q7 -24 -15 -24h-546q-14 0 -17.5 4.5t0.5 14.5l206 654q3 13 15 13h138q10 0 16 -15zM391 132l-68 289q-15 55 -24 132q-9 -77 -24 -132l-68 -289h184z" />
    <glyph glyph-name="afii10023" unicode="&#x401;" horiz-adv-x="528" 
d="M487 186v-170q0 -16 -15 -16h-430q-15 0 -15 13v92q0 9 3.5 12t12.5 3h45v445h-45q-16 0 -16 16v89q0 16 17 16h424q11 0 13.5 -3.5t2.5 -13.5v-161q0 -10 -2.5 -13.5t-13.5 -3.5h-97q-11 0 -13.5 3.5t-2.5 13.5v47h-103v-136h166q16 0 16 -17v-90q0 -12 -3.5 -16.5
t-14.5 -4.5h-164v-160h106v57q0 16 14 16h98q11 0 14 -4t3 -14zM87 822q0 33 22.5 55.5t55.5 22.5t55.5 -22.5t22.5 -55.5t-22.5 -55.5t-55.5 -22.5t-55.5 22.5t-22.5 55.5zM289 822q0 33 22.5 55.5t55.5 22.5t55.5 -22.5t22.5 -55.5t-22.5 -55.5t-55.5 -22.5t-55.5 22.5
t-22.5 55.5z" />
    <glyph glyph-name="afii10051" unicode="&#x402;" horiz-adv-x="650" 
d="M15 686h463q18 0 14 -18l-23 -109q-2 -9 -5.5 -12.5t-13.5 -3.5h-150v-140q61 28 131 28q101 0 150 -51t49 -170q0 -122 -45 -173q-47 -54 -141 -54q-60 0 -89 15q-12 6 -10 21l15 92q1 4 5.5 6t8.5 0l7 -3q12 -6 31 -6q22 0 35 13q17 17 17 82q0 60 -18 80
q-19 22 -61 22q-41 0 -85 -20v-269q0 -9 -3 -12.5t-12 -3.5h-195q-16 0 -16 13v91q0 10 3 13t13 3h45v423h-120q-15 0 -15 16v112q0 15 15 15z" />
    <glyph glyph-name="afii10052" unicode="&#x403;" horiz-adv-x="501" 
d="M489 669v-161q0 -10 -3 -13.5t-13 -3.5h-97q-10 0 -13 3.5t-3 13.5v47h-108v-435h56q14 0 17.5 -3t3.5 -17v-79q0 -14 -3.5 -17.5t-17.5 -3.5h-261q-14 0 -17 3.5t-3 17.5v79q0 14 3 17t17 3h41v445h-41q-14 0 -17 3.5t-3 16.5v81q0 13 3 16.5t17 3.5h426q10 0 13 -3.5
t3 -13.5zM366 934l42 -85q5 -10 5 -14q0 -8 -15 -14l-206 -79q-8 -3 -13 -3q-9 0 -14 13l-24 49q-5 10 -5 14q0 6 14 14l188 113q10 6 15 6q6 0 13 -14z" />
    <glyph glyph-name="afii10053" unicode="&#x404;" horiz-adv-x="531" 
d="M501 617v-124q0 -17 -18 -17h-99q-16 0 -16 17v67q-24 8 -54 8q-61 0 -89 -42q-25 -36 -25 -109h153q13 0 13 -15v-99q0 -14 -14 -14h-152q0 -98 30 -136q27 -35 82 -35q29 0 56 8v69q0 17 18 17h98q11 0 14 -3.5t3 -13.5v-135q0 -17 -17 -30q-27 -21 -74 -34
q-48 -13 -104 -13q-125 0 -193 71q-47 49 -63.5 120t-16.5 175q0 60 3.5 101t21 93t50.5 87q67 73 193 73q64 0 111 -16q53 -17 77 -42q12 -12 12 -28z" />
    <glyph glyph-name="afii10054" unicode="&#x405;" horiz-adv-x="517" 
d="M330 497v63q-31 10 -60 10q-38 0 -58.5 -17t-20.5 -44q0 -23 16.5 -38t66.5 -39q88 -42 129 -78q39 -33 58 -68t19 -86q0 -96 -63.5 -154.5t-167.5 -58.5q-59 0 -117 14t-89 39q-11 9 -11 23v143q0 10 3 13.5t14 3.5h97q10 0 13.5 -3.5t3.5 -13.5v-69q44 -17 85 -17
q36 0 55.5 18.5t19.5 50.5q0 35 -21 52.5t-108 58.5q-69 33 -98 58q-64 53 -64 139q0 94 63 148t170 54q49 0 102 -13.5t82 -36.5q12 -11 12 -22v-130q0 -10 -3.5 -13.5t-14.5 -3.5h-95q-11 0 -14.5 3.5t-3.5 13.5z" />
    <glyph glyph-name="afii10055" unicode="&#x406;" horiz-adv-x="357" 
d="M323 100v-79q0 -14 -3.5 -17.5t-17.5 -3.5h-255q-14 0 -17 3.5t-3 17.5v79q0 14 3 17t17 3h44v445h-44q-14 0 -17 3t-3 17v81q0 13 3 16.5t17 3.5h255q14 0 17.5 -3.5t3.5 -16.5v-81q0 -14 -3.5 -17t-17.5 -3h-46v-445h46q14 0 17.5 -3t3.5 -17z" />
    <glyph glyph-name="afii10056" unicode="&#x407;" horiz-adv-x="357" 
d="M323 100v-79q0 -14 -3.5 -17.5t-17.5 -3.5h-255q-14 0 -17 3.5t-3 17.5v79q0 14 3 17t17 3h44v445h-44q-14 0 -17 3t-3 17v81q0 13 3 16.5t17 3.5h255q14 0 17.5 -3.5t3.5 -16.5v-81q0 -14 -3.5 -17t-17.5 -3h-46v-445h46q14 0 17.5 -3t3.5 -17zM346 816q0 -35 -22 -60
t-54 -25t-54 25t-22 60t22 60t54 25t54 -25t22 -60zM163 816q0 -35 -22 -60t-54 -25t-54 25t-22 60t22 60t54 25t54 -25t22 -60z" />
    <glyph glyph-name="afii10057" unicode="&#x408;" horiz-adv-x="460" 
d="M406 666v-455q0 -66 -12.5 -107t-44.5 -70q-55 -51 -147 -51q-145 0 -185 120q-11 33 -11 100q0 18 11 18h122q11 0 11 -13v-7q0 -51 9.5 -70t37.5 -19q27 0 36.5 18t9.5 64v371h-136q-14 0 -17.5 3.5t-3.5 16.5v81q0 13 4 16.5t17 3.5h279q13 0 16.5 -3.5t3.5 -16.5z
" />
    <glyph glyph-name="afii10058" unicode="&#x409;" horiz-adv-x="864" 
d="M553 419h72q118 0 174 -56q55 -55 55 -151q0 -99 -56 -153q-62 -59 -201 -59h-189q-14 0 -17 4t-3 17v532h-99v-65q0 -98 -8 -212q-4 -48 -9.5 -81t-23.5 -76.5t-47 -72.5q-66 -61 -153 -61q-19 0 -22 12l-29 97q-7 23 11 26l14 3q50 10 73 34q7 7 12.5 15.5t9.5 20.5
l7 21t5 24.5t3.5 24t2 27.5t1 26t1 28t0.5 26q1 66 1 153v42h-41q-14 0 -17 3.5t-3 16.5v81q0 13 3 16.5t17 3.5h492q13 0 17 -3t4 -17v-80q0 -15 -3 -18t-18 -3h-36v-146zM553 303v-175h43q57 0 80 24q20 21 20 65q0 41 -21 63q-22 23 -77 23h-45z" />
    <glyph glyph-name="afii10059" unicode="&#x40a;" horiz-adv-x="891" 
d="M378 686h238q13 0 17 -3t4 -17v-80q0 -15 -3 -18t-18 -3h-36v-146h72q118 0 174 -56q55 -55 55 -151q0 -99 -56 -153q-62 -59 -201 -59h-246q-14 0 -17 4t-3 17v79q0 14 4 17t17 3h36v183h-162v-183h41q16 0 16 -15v-93q0 -12 -15 -12h-255q-13 0 -13 12v92q0 16 14 16
h47v445h-48q-13 0 -13 12v94q0 15 14 15h254q15 0 15 -15v-92q0 -14 -13 -14h-44v-146h162v146h-37q-14 0 -17 3.5t-3 16.5v81q0 13 3 16.5t17 3.5zM580 303v-175h43q57 0 80 24q20 21 20 65q0 41 -21 63q-22 23 -77 23h-45z" />
    <glyph glyph-name="afii10060" unicode="&#x40b;" horiz-adv-x="694" 
d="M622 307v-187h46q16 0 16 -15v-84q0 -12 -3.5 -16.5t-15.5 -4.5h-244q-20 0 -20 21v79q0 14 3 17t17 3h36v164q0 31 -18 49q-20 19 -59 19q-38 0 -80 -21v-211h41q16 0 16 -16v-88q0 -9 -3 -12.5t-12 -3.5h-252q-16 0 -16 13v91q0 10 3 13t13 3h45v423h-120q-15 0 -15 16
v112q0 15 15 15h463q18 0 14 -18l-23 -109q-2 -9 -5.5 -12.5t-13.5 -3.5h-150v-92q65 27 134 27q94 0 145 -51q43 -42 43 -120z" />
    <glyph glyph-name="afii10061" unicode="&#x40c;" horiz-adv-x="612" 
d="M253 120h38q12 0 15 -4t3 -16v-83q0 -11 -3 -14t-14 -3h-250q-15 0 -15 14v92q0 8 3 11t11 3h47v445h-44q-11 0 -14 4t-3 16v81q0 13 3 16.5t17 3.5h246q17 0 17 -16v-89q0 -11 -3.5 -13.5t-13.5 -2.5h-40v-146h30q41 0 59 17q15 14 23 66l9 58q10 65 40 95
q21 21 57 34.5t64 13.5q22 0 26 -13l26 -93q5 -18 -10 -21l-16 -4q-24 -6 -37 -17q-12 -11 -17 -39l-9 -58q-8 -48 -32 -71q-19 -19 -46 -27v-3q32 -7 54 -28q23 -22 34 -74l16 -79q6 -29 18 -41q8 -8 36 -14l15 -3q15 -3 10 -20l-31 -100q-5 -15 -26 -15q-85 0 -126 44
q-30 32 -39 101l-14 93q-7 42 -23 56t-52 14h-39v-171zM411 934l42 -85q5 -10 5 -14q0 -8 -15 -14l-206 -79q-8 -3 -13 -3q-9 0 -14 13l-24 49q-5 10 -5 14q0 6 14 14l188 113q11 6 15 6q6 0 13 -14z" />
    <glyph glyph-name="afii10062" unicode="&#x40e;" horiz-adv-x="577" 
d="M281 208h-84q-9 0 -12 9l-117 348h-42q-12 0 -15 3.5t-3 15.5v84q0 12 3 15t15 3h151h9t5.5 -3t5.5 -9l62 -215q25 -85 39 -143h5q5 26 32 147l47 203q3 14 7 17t16 3h146q12 0 15 -3t3 -15v-84q0 -12 -3 -15.5t-15 -3.5h-42l-97 -392q-23 -95 -69 -141q-49 -49 -133 -49
q-44 0 -82 14q-35 14 -49 28q-9 9 -5 21l31 85q5 12 19 7q3 -1 11 -6t16 -9q26 -13 51 -13q31 0 49 18q15 15 25 58zM368 916l96 -11q11 -2 11 -14q0 -55 -45 -98q-53 -49 -139 -49t-139 49q-45 43 -45 98q0 13 11 14l96 11q12 1 15 -11l2 -7q9 -30 16 -37q14 -16 44 -16
t44 16q7 7 16 37l2 7q3 12 15 11z" />
    <glyph glyph-name="afii10145" unicode="&#x40f;" horiz-adv-x="666" 
d="M257 0h-214q-16 0 -16 13v91q0 10 3 13t13 3h45v445h-41q-14 0 -17 3.5t-3 16.5v81q0 13 3 16.5t17 3.5h249q9 0 11.5 -3.5t2.5 -11.5v-94q0 -12 -15 -12h-42v-433h157v433h-42q-15 0 -15 12v94q0 8 2.5 11.5t11.5 3.5h249q14 0 17 -3.5t3 -16.5v-81q0 -13 -3 -16.5
t-17 -3.5h-41v-445h45q10 0 13 -3t3 -13v-91q0 -13 -16 -13h-214v-155q0 -19 -18 -19h-111q-20 0 -20 20v154z" />
    <glyph glyph-name="afii10017" unicode="&#x410;" horiz-adv-x="597" 
d="M601 104v-87q0 -10 -4 -13.5t-14 -3.5h-157q-10 0 -13 2.5t-6 14.5l-41 155h-152l-45 -163q-3 -9 -12 -9h-150q-11 0 -14 3t-3 14v87q0 10 3.5 13t13.5 3h30l173 549q4 12 7 14.5t15 2.5h127q12 0 15.5 -2.5t7.5 -14.5l169 -549h32q18 0 18 -16zM340 285l-32 144
q0 2 -20 126q-9 -69 -22 -126l-34 -144h108z" />
    <glyph glyph-name="afii10018" unicode="&#x411;" horiz-adv-x="578" 
d="M88 120v445h-41q-14 0 -17 3.5t-3 16.5v81q0 13 3 16.5t17 3.5h444q11 0 13.5 -3.5t2.5 -13.5v-161q0 -10 -2.5 -13.5t-13.5 -3.5h-97q-11 0 -13.5 3.5t-2.5 13.5v47h-133v-136h72q115 0 174 -57q55 -53 55 -151q0 -95 -52 -149q-59 -62 -185 -62h-262q-14 0 -17 3.5
t-3 17.5v79q0 14 3 17t17 3h41zM245 303v-175h38q63 0 86 25q19 21 19 65q0 45 -24 66q-21 19 -84 19h-35z" />
    <glyph glyph-name="afii10019" unicode="&#x412;" horiz-adv-x="590" 
d="M47 686h238q83 0 122 -9.5t68 -37.5q54 -52 54 -134q0 -99 -92 -145q116 -41 116 -160q0 -63 -34.5 -116t-88.5 -70q-44 -14 -137 -14h-246q-14 0 -17 3.5t-3 17.5v79q0 14 3 17t17 3h41v445h-41q-14 0 -17 3.5t-3 16.5v81q0 13 3 16.5t17 3.5zM245 407h40q47 0 67.5 20
t20.5 64q0 40 -19.5 58.5t-65.5 18.5h-43v-161zM245 127h43q58 0 82 19.5t24 61.5q0 46 -23 64.5t-86 18.5h-40v-164z" />
    <glyph glyph-name="afii10020" unicode="&#x413;" horiz-adv-x="501" 
d="M489 669v-161q0 -10 -3 -13.5t-13 -3.5h-97q-10 0 -13 3.5t-3 13.5v47h-108v-435h56q14 0 17.5 -3t3.5 -17v-79q0 -14 -3.5 -17.5t-17.5 -3.5h-261q-14 0 -17 3.5t-3 17.5v79q0 14 3 17t17 3h41v445h-41q-14 0 -17 3.5t-3 16.5v81q0 13 3 16.5t17 3.5h426q10 0 13 -3.5
t3 -13.5z" />
    <glyph glyph-name="afii10021" unicode="&#x414;" horiz-adv-x="637" 
d="M458 0h-316v-142q0 -20 -20 -20h-102q-20 0 -20 20v250q0 20 20 20h38q43 89 61 178q17 84 17 215v44h-41q-14 0 -17 3.5t-3 16.5v81q0 13 3 16.5t17 3.5h484q14 0 17 -3.5t3 -16.5v-81q0 -13 -3 -16.5t-17 -3.5h-41v-437h42q20 0 20 -20v-250q0 -20 -20 -20h-102
q-20 0 -20 20v142zM380 128v430h-99v-59q0 -120 -14 -196q-18 -94 -57 -175h170z" />
    <glyph glyph-name="afii10022" unicode="&#x415;" horiz-adv-x="528" 
d="M487 186v-166q0 -12 -3 -16t-15 -4h-422q-14 0 -17 3.5t-3 17.5v79q0 14 3 17t17 3h41v445h-41q-14 0 -17 3.5t-3 16.5v81q0 13 3 16.5t17 3.5h421q10 0 13 -3.5t3 -13.5v-161q0 -10 -3 -13.5t-13 -3.5h-97q-10 0 -13 3.5t-3 13.5v47h-103v-136h161q13 0 17 -3.5t4 -17.5
v-86q0 -13 -4 -17t-17 -4h-161v-160h106v55q0 11 3 14.5t13 3.5h96q10 0 13.5 -3.5t3.5 -14.5z" />
    <glyph glyph-name="afii10024" unicode="&#x416;" horiz-adv-x="856" 
d="M806 690l26 -93q5 -18 -10 -21l-14 -3q-27 -7 -35 -15q-12 -11 -19 -45l-10 -53q-10 -54 -36 -78q-19 -17 -45 -22v-3q36 -8 60 -34t33 -80l9 -52q8 -42 18 -54q10 -10 36 -15l19 -4q15 -4 10 -20l-31 -100q-4 -15 -23 -15q-85 0 -126 41q-30 29 -38 92l-12 89
q-7 51 -24 68q-18 18 -62 18h-29v-171h36q13 0 17 -3t4 -17v-79v-9.5t-1 -5.5t-3.5 -4t-6 -1.5t-9.5 -0.5h-224q-14 0 -17 3.5t-3 17.5v79q0 14 4 17t17 3h36v171h-29q-44 0 -62 -18q-17 -17 -24 -68l-12 -89q-8 -63 -38 -92q-41 -41 -126 -41q-19 0 -23 15l-31 100
q-5 16 10 20l19 4q26 5 36 15q10 12 18 54l9 52q9 54 33 80t60 34v3q-26 5 -45 22q-26 24 -36 78l-10 53q-7 34 -19 45q-8 8 -35 15l-14 3q-15 3 -10 21l26 93q3 12 21 12q78 0 122 -48q29 -31 38 -85l11 -68q7 -47 25 -65q18 -17 56 -17h30v147h-36q-13 0 -17 3t-4 17v79
v9.5t1 5.5t3.5 4t6 1.5t9.5 0.5h224q14 0 17 -3.5t3 -17.5v-79q0 -14 -4 -17t-17 -3h-36v-147h30q38 0 56 17q17 18 25 65l11 68q9 54 38 85q44 48 122 48q18 0 21 -12z" />
    <glyph glyph-name="afii10025" unicode="&#x417;" horiz-adv-x="523" 
d="M163 309v86q0 20 20 20h14q58 0 82 15q32 20 32 64q0 36 -22 58q-23 23 -68 23q-34 0 -62 -11v-71q0 -17 -16 -17h-99q-18 0 -18 17v123q0 17 12 28q24 23 79 40q58 19 127 19q119 0 180 -64q49 -52 49 -132q0 -54 -25 -93t-71 -51q43 -13 73 -48q40 -46 40 -117
q0 -97 -54 -152q-62 -63 -193 -63q-72 0 -131 16q-58 17 -80 39q-12 11 -12 26v131q0 10 3 13.5t14 3.5h98q18 0 18 -17v-70q33 -14 70 -14q47 0 73 24q24 22 24 68q0 43 -25 65q-24 21 -81 21h-31q-20 0 -20 20z" />
    <glyph glyph-name="afii10026" unicode="&#x418;" horiz-adv-x="678" 
d="M224 0h-176h-2q-8 0 -11.5 0.5t-5.5 4.5t-2 12v83q0 14 3 17t17 3h41v445h-41q-14 0 -17 3.5t-3 16.5v81q0 13 3 16.5t17 3.5h236q11 0 14 -4t3 -16v-84q0 -10 -2.5 -13.5t-13.5 -3.5h-41v-137q0 -93 -10 -174h5q22 68 61 152l123 264q7 16 30 16h175h9t6 -1.5t5 -5
t1 -10.5v-83q0 -14 -3 -17t-17 -3h-41v-445h41q14 0 17 -3.5t3 -16.5v-81q0 -13 -3 -16.5t-17 -3.5h-235q-11 0 -14 4t-3 16v84q0 10 2.5 13.5t13.5 3.5h40v156q0 59 10 169h-6q-20 -75 -57 -152l-129 -275q-4 -8 -6.5 -11.5t-7 -5.5t-12.5 -2z" />
    <glyph glyph-name="afii10027" unicode="&#x419;" horiz-adv-x="678" 
d="M224 0h-176h-2q-8 0 -11.5 0.5t-5.5 4.5t-2 12v83q0 14 3 17t17 3h41v445h-41q-14 0 -17 3.5t-3 16.5v81q0 13 3 16.5t17 3.5h236q11 0 14 -4t3 -16v-84q0 -10 -2.5 -13.5t-13.5 -3.5h-41v-137q0 -93 -10 -174h5q22 68 61 152l123 264q7 16 30 16h175h9t6 -1.5t5 -5
t1 -10.5v-83q0 -14 -3 -17t-17 -3h-41v-445h41q14 0 17 -3.5t3 -16.5v-81q0 -13 -3 -16.5t-17 -3.5h-235q-11 0 -14 4t-3 16v84q0 10 2.5 13.5t13.5 3.5h40v156q0 59 10 169h-6q-20 -75 -57 -152l-129 -275q-4 -8 -6.5 -11.5t-7 -5.5t-12.5 -2zM420 916l96 -11q11 -2 11 -14
q0 -55 -45 -98q-53 -49 -139 -49t-139 49q-45 43 -45 98q0 13 11 14l96 11q12 1 15 -11l2 -7q9 -30 16 -37q14 -16 44 -16t44 16q7 7 16 37l2 7q3 12 15 11z" />
    <glyph glyph-name="afii10028" unicode="&#x41a;" horiz-adv-x="612" 
d="M253 120h38q12 0 15 -4t3 -16v-83q0 -11 -3 -14t-14 -3h-250q-15 0 -15 14v92q0 8 3 11t11 3h47v445h-44q-11 0 -14 4t-3 16v81q0 13 3 16.5t17 3.5h246q17 0 17 -16v-89q0 -11 -3.5 -13.5t-13.5 -2.5h-40v-146h30q41 0 59 17q15 14 23 66l9 58q10 65 40 95
q21 21 57 34.5t64 13.5q22 0 26 -13l26 -93q5 -18 -10 -21l-16 -4q-24 -6 -37 -17q-12 -11 -17 -39l-9 -58q-8 -48 -32 -71q-19 -19 -46 -27v-3q32 -7 54 -28q23 -22 34 -74l16 -79q6 -29 18 -41q8 -8 36 -14l15 -3q15 -3 10 -20l-31 -100q-5 -15 -26 -15q-85 0 -126 44
q-30 32 -39 101l-14 93q-7 42 -23 56t-52 14h-39v-171z" />
    <glyph glyph-name="afii10029" unicode="&#x41b;" horiz-adv-x="645" 
d="M289 553v-65q0 -98 -8 -212q-4 -48 -9.5 -81t-23.5 -76.5t-47 -72.5q-66 -61 -153 -61q-19 0 -22 12l-29 97q-7 23 11 26l14 3q50 10 73 34q7 7 12.5 15.5t9.5 20.5l7 21t5 24.5t3.5 24t2 27.5t1 26t1 28t0.5 26q1 66 1 153v42h-41q-14 0 -17 3.5t-3 16.5v81q0 13 3 16.5
t17 3.5h497q14 0 17 -3.5t3 -16.5v-81q0 -13 -3 -16.5t-17 -3.5h-41v-445h41q13 0 17 -3t4 -17v-79q0 -15 -3 -18t-18 -3h-242q-14 0 -17 3.5t-3 17.5v79q0 14 3 17t17 3h36v433h-99z" />
    <glyph glyph-name="afii10030" unicode="&#x41c;" horiz-adv-x="764" 
d="M730 102v-82q0 -12 -3.5 -16t-15.5 -4h-167q-12 0 -17 4t-5 16l-5 291q0 21 5 164q-16 -70 -41 -152l-49 -160q-4 -12 -7.5 -14.5t-15.5 -2.5h-73q-12 0 -15 2.5t-7 15.5l-44 155q-13 44 -38 156q2 -116 1 -171l-5 -284q0 -12 -3 -16t-15 -4h-164q-12 0 -15.5 4t-3.5 16
v82q0 12 3.5 15t15.5 3h35l24 445h-39q-12 0 -15.5 3.5t-3.5 15.5v84q0 12 3.5 15t15.5 3h191q12 0 15.5 -2.5t7.5 -13.5l71 -225q14 -46 25 -108q12 51 31 109l75 224q4 11 7.5 13.5t15.5 2.5h186q12 0 16 -3t4 -15v-84q0 -12 -4 -15.5t-16 -3.5h-40l24 -445h36
q12 0 15.5 -3t3.5 -15z" />
    <glyph glyph-name="afii10031" unicode="&#x41d;" horiz-adv-x="672" 
d="M642 100v-79q0 -14 -3.5 -17.5t-17.5 -3.5h-242q-14 0 -17 3.5t-3 17.5v79q0 14 3 17t17 3h36v167h-162v-167h36q14 0 17.5 -3t3.5 -17v-79q0 -14 -3.5 -17.5t-17.5 -3.5h-242q-14 0 -17 3.5t-3 17.5v79q0 14 3 17t17 3h41v445h-41q-14 0 -17 3.5t-3 16.5v81q0 13 3 16.5
t17 3.5h242q14 0 17.5 -3t3.5 -17v-80q0 -14 -3.5 -17.5t-17.5 -3.5h-36v-145h162v145h-36q-14 0 -17 3.5t-3 16.5v81q0 13 3 16.5t17 3.5h242q14 0 17.5 -3t3.5 -17v-80q0 -14 -3.5 -17.5t-17.5 -3.5h-41v-445h41q14 0 17.5 -3t3.5 -17z" />
    <glyph glyph-name="afii10032" unicode="&#x41e;" horiz-adv-x="590" 
d="M557 353q0 -370 -265 -370q-259 0 -259 370q0 71 13 130.5t42 110.5t82.5 80t126.5 29q260 0 260 -350zM389 344q0 234 -94 234q-93 0 -93 -238q0 -232 93 -232q94 0 94 236z" />
    <glyph glyph-name="afii10033" unicode="&#x41f;" horiz-adv-x="655" 
d="M625 100v-79q0 -14 -3.5 -17.5t-17.5 -3.5h-238q-14 0 -17 3.5t-3 17.5v79q0 14 3 17t17 3h34v433h-149v-433h33q14 0 17.5 -3t3.5 -17v-79q0 -14 -3.5 -17.5t-17.5 -3.5h-237q-14 0 -17 3.5t-3 17.5v79q0 14 3 17t17 3h41v445h-41q-14 0 -17 3.5t-3 16.5v81q0 13 3 16.5
t17 3.5h557q14 0 17.5 -3t3.5 -17v-80q0 -14 -3.5 -17.5t-17.5 -3.5h-41v-445h41q14 0 17.5 -3t3.5 -17z" />
    <glyph glyph-name="afii10034" unicode="&#x420;" horiz-adv-x="554" 
d="M47 686h241q73 0 115.5 -10t71.5 -35q58 -50 58 -149q0 -103 -65 -165t-173 -62h-43v-145h56q14 0 17.5 -3t3.5 -17v-79q0 -15 -2.5 -18t-16.5 -3h-264q-14 0 -16.5 3t-2.5 18v79q0 14 3 17t17 3h41v445h-41q-14 0 -17 3.5t-3 16.5v81q0 13 3 16.5t17 3.5zM252 394h28
q56 0 78 19.5t22 69.5q0 46 -21 64.5t-72 18.5h-35v-172z" />
    <glyph glyph-name="afii10035" unicode="&#x421;" horiz-adv-x="543" 
d="M504 195v-142q0 -15 -33 -34q-59 -36 -160 -36q-128 0 -191 69q-88 94 -88 292q0 185 78 274q74 85 196 85t178 -55q12 -12 12 -23v-132q0 -10 -4 -13.5t-14 -3.5h-99q-10 0 -13 3.5t-3 13.5v70q-32 5 -51 5q-58 0 -86 -48t-28 -154q0 -135 29.5 -191.5t93.5 -56.5
q29 0 50 4v73q0 10 4 13.5t14 3.5h98q10 0 13.5 -3.5t3.5 -13.5z" />
    <glyph glyph-name="afii10036" unicode="&#x422;" horiz-adv-x="514" 
d="M512 669v-196q0 -11 -3 -14t-14 -3h-74q-11 0 -14.5 3.5t-3.5 13.5v76h-63v-429h63q14 0 17.5 -3t3.5 -17v-79q0 -14 -3 -17.5t-17 -3.5h-292q-14 0 -17 3.5t-3 17.5v79q0 14 3.5 17t17.5 3h63v429h-63v-76q0 -11 -3.5 -14t-13.5 -3h-74q-11 0 -14.5 3.5t-3.5 13.5v196
q0 10 4 13.5t15 3.5h473q10 0 13 -3t3 -14z" />
    <glyph glyph-name="afii10037" unicode="&#x423;" horiz-adv-x="577" 
d="M281 208h-84q-9 0 -12 9l-117 348h-42q-12 0 -15 3.5t-3 15.5v84q0 12 3 15t15 3h151h9t5.5 -3t5.5 -9l62 -215q25 -85 39 -143h5q5 26 32 147l47 203q3 14 7 17t16 3h146q12 0 15 -3t3 -15v-84q0 -12 -3 -15.5t-15 -3.5h-42l-97 -392q-23 -95 -69 -141q-49 -49 -133 -49
q-44 0 -82 14q-35 14 -49 28q-9 9 -5 21l31 85q5 12 19 7q3 -1 11 -6t16 -9q26 -13 51 -13q31 0 49 18q15 15 25 58z" />
    <glyph glyph-name="afii10038" unicode="&#x424;" horiz-adv-x="714" 
d="M423 0h-132q-17 0 -17 15v92h-14q-106 0 -167 58q-69 64 -69 203q0 135 68 201q62 60 171 60h11v92q0 14 16 14h135q15 0 15 -15v-91h11q109 0 171 -60q68 -66 68 -201q0 -139 -69 -203q-61 -58 -167 -58h-14v-92q0 -15 -17 -15zM434 514v-291h10q40 0 62 21
q31 30 31 122q0 98 -30 128q-20 20 -62 20h-11zM280 514h-11q-42 0 -62 -20q-30 -30 -30 -128q0 -92 31 -122q22 -21 62 -21h10v291z" />
    <glyph glyph-name="afii10039" unicode="&#x425;" horiz-adv-x="566" 
d="M570 102v-82q0 -12 -3.5 -16t-15.5 -4h-140q-10 0 -12.5 2t-7.5 11l-85 160q-10 21 -24 60q-11 -31 -26 -60l-87 -160q-5 -9 -8 -11t-13 -2h-143q-12 0 -15 4t-3 16v82q0 11 3 14.5t15 3.5h42l145 243l-125 202h-45q-12 0 -16 3.5t-4 15.5v84q0 12 4 15t16 3h142
q11 0 14.5 -2.5t8.5 -11.5l67 -128q10 -18 27 -66q14 46 23 65l63 129q5 11 7.5 12.5t14.5 1.5h144q12 0 15 -3t3 -15v-84q0 -12 -3 -15.5t-15 -3.5h-46l-119 -204l140 -241h43q12 0 15.5 -3.5t3.5 -14.5z" />
    <glyph glyph-name="afii10040" unicode="&#x426;" horiz-adv-x="655" 
d="M631 108v-251q0 -19 -18 -19h-104q-20 0 -20 20v142h-446q-10 0 -13 3t-3 13v88q0 16 13 16h48v445h-41q-14 0 -17 3.5t-3 16.5v81q0 13 3 16.5t17 3.5h239q13 0 17 -3t4 -17v-80q0 -15 -3 -18t-18 -3h-33v-433h145v433h-34q-14 0 -17 3.5t-3 16.5v81q0 13 3 16.5t17 3.5
h240q13 0 17 -3t4 -17v-80q0 -15 -3 -18t-18 -3h-41v-437h48q20 0 20 -20z" />
    <glyph glyph-name="afii10041" unicode="&#x427;" horiz-adv-x="636" 
d="M379 398v167h-34q-14 0 -17 3.5t-3 16.5v81q0 13 3 16.5t17 3.5h240q13 0 17 -3t4 -17v-80q0 -15 -3 -18t-18 -3h-41v-445h41q13 0 17 -3t4 -17v-79q0 -15 -3 -18t-18 -3h-247q-7 0 -10.5 2.5t-4 5t-0.5 9.5v4v79q0 14 3 17t17 3h36v157q-51 -27 -114 -27q-93 0 -143 46
q-51 45 -51 134v135h-41q-14 0 -17 3.5t-3 16.5v81q0 13 3 16.5t17 3.5h234q13 0 17 -3t4 -17v-80q0 -15 -3 -18t-18 -3h-33v-103q0 -48 16 -66q19 -21 60 -21q40 0 72 23z" />
    <glyph glyph-name="afii10042" unicode="&#x428;" horiz-adv-x="938" 
d="M648 686h239q13 0 17 -3t4 -17v-80q0 -15 -3 -18t-18 -3h-41v-445h41q13 0 17 -3t4 -17v-79q0 -15 -3 -18t-18 -3h-844q-10 0 -13 3t-3 13v88q0 16 13 16h48v445h-41q-14 0 -17 3.5t-3 16.5v81q0 13 3 16.5t17 3.5h239q13 0 17 -3t4 -17v-80q0 -15 -3 -18t-18 -3h-36
v-432h136v532q0 15 3 18t18 3h120q15 0 18 -3t3 -18v-532h136v432h-36q-14 0 -17 3.5t-3 16.5v81q0 13 3 16.5t17 3.5z" />
    <glyph glyph-name="afii10043" unicode="&#x429;" horiz-adv-x="938" 
d="M648 686h239q13 0 17 -3t4 -17v-80q0 -15 -3 -18t-18 -3h-41v-437h48q20 0 20 -20v-251q0 -19 -18 -19h-104q-20 0 -20 20v142h-729q-10 0 -13 3t-3 13v88q0 16 13 16h48v445h-41q-14 0 -17 3.5t-3 16.5v81q0 13 3 16.5t17 3.5h239q13 0 17 -3t4 -17v-80q0 -15 -3 -18
t-18 -3h-36v-432h136v532q0 15 3 18t18 3h120q15 0 18 -3t3 -18v-532h136v432h-36q-14 0 -17 3.5t-3 16.5v81q0 13 3 16.5t17 3.5z" />
    <glyph glyph-name="afii10044" unicode="&#x42a;" horiz-adv-x="652" 
d="M23 686h302q16 0 16 -13v-254h72q118 0 174 -56q55 -55 55 -152q0 -98 -56 -152q-62 -59 -201 -59h-251q-14 0 -17 4t-3 17v79q0 14 4 17t17 3h41v429h-63v-76q0 -11 -3 -14t-14 -3h-74q-10 0 -14 3t-4 14v196q0 11 4 14t15 3zM341 303v-175h43q57 0 79 22q21 21 21 67
q0 42 -20 63q-22 23 -78 23h-45z" />
    <glyph glyph-name="afii10045" unicode="&#x42b;" horiz-adv-x="860" 
d="M603 120v445h-36q-14 0 -17 3.5t-3 16.5v81q0 13 3 16.5t17 3.5h242q13 0 17 -3t4 -17v-80q0 -15 -3 -18t-18 -3h-41v-445h41q13 0 17 -3t4 -17v-79q0 -15 -3 -18t-18 -3h-247q-7 0 -10.5 2.5t-4 5t-0.5 9.5v4v79q0 14 3 17t17 3h36zM89 565h-40q-14 0 -17 3.5t-3 16.5
v81q0 13 3 16.5t17 3.5h241q13 0 17 -3t4 -17v-80q0 -15 -3 -18t-18 -3h-36v-146h66q118 0 174 -56q55 -55 55 -151q0 -93 -53 -148q-63 -64 -204 -64h-245q-14 0 -17 4t-3 17v79q0 14 4 17t17 3h41v445zM254 303v-175h43q59 0 81 24q19 21 19 65q0 42 -20 63q-22 23 -78 23
h-45z" />
    <glyph glyph-name="afii10046" unicode="&#x42c;" horiz-adv-x="565" 
d="M89 565h-40q-14 0 -17 3.5t-3 16.5v81q0 13 3 16.5t17 3.5h241q13 0 17 -3t4 -17v-80q0 -15 -3 -18t-18 -3h-36v-146h72q118 0 174 -56q55 -55 55 -151q0 -99 -56 -153q-62 -59 -201 -59h-251q-14 0 -17 4t-3 17v79q0 14 4 17t17 3h41v445zM254 303v-175h43q57 0 80 24
q20 21 20 65q0 41 -21 63q-22 23 -77 23h-45z" />
    <glyph glyph-name="afii10047" unicode="&#x42d;" horiz-adv-x="533" 
d="M30 493v123q0 16 12 28q26 26 78 42q51 17 112 17q124 0 191 -69q35 -37 53.5 -92.5t21 -93t2.5 -99.5q0 -63 -3 -104t-22 -97.5t-54 -93.5q-41 -43 -90 -57t-110 -14q-57 0 -105 16q-40 12 -65 31q-21 15 -21 30v135q0 10 3 13.5t14 3.5h98q18 0 18 -17v-68q27 -9 56 -9
q49 0 75 24q39 37 38 147h-152q-14 0 -14 14v99q0 15 13 15h153q0 73 -24 109q-28 42 -91 42q-30 0 -54 -8v-67q0 -17 -16 -17h-99q-18 0 -18 17z" />
    <glyph glyph-name="afii10048" unicode="&#x42e;" horiz-adv-x="881" 
d="M253 419h83q5 140 82 216q68 68 179 68q103 0 166 -63q85 -84 85 -287q0 -210 -83 -299q-66 -71 -181 -71q-106 0 -168 63q-78 79 -80 241h-83v-167h41q11 0 13.5 -4t2.5 -16v-85q0 -9 -3.5 -12t-12.5 -3h-254q-13 0 -13 13v94q0 13 12 13h49v445h-46q-11 0 -13 4.5
t-2 15.5v84q0 11 4 14t16 3h246q10 0 13.5 -3t3.5 -14v-91q0 -13 -16 -13h-41v-146zM590 109q28 0 47 21q44 48 44 213q0 168 -43 213q-21 21 -48 21q-29 0 -50 -21q-43 -44 -43 -213q0 -165 43 -213q20 -21 50 -21z" />
    <glyph glyph-name="afii10049" unicode="&#x42f;" horiz-adv-x="620" 
d="M304 686h265q13 0 17 -3t4 -17v-80v-2q0 -8 -0.5 -11.5t-4.5 -5.5t-12 -2h-45v-445h41q13 0 17 -3t4 -17v-79q0 -15 -3 -18t-18 -3h-242q-14 0 -17 3.5t-3 17.5v79q0 13 3 16.5t17 3.5h36v153h-33q-38 0 -58 -20q-18 -17 -26 -64l-11 -62q-12 -69 -45 -100
q-46 -44 -127 -44q-19 0 -24 15l-31 95q-6 17 12 23l11 3q28 8 38 17q15 14 23 48l9 44q11 52 34 76q19 18 50 29v2q-47 11 -73 39q-40 40 -40 116q0 84 50 135q60 61 182 61zM363 396v172h-45q-44 0 -65 -19q-22 -21 -22 -65q0 -47 22 -68q21 -20 68 -20h42z" />
    <glyph glyph-name="afii10065" unicode="&#x430;" horiz-adv-x="517" 
d="M493 102v-89q0 -8 -3 -10.5t-11 -2.5h-137q-14 0 -19 10q-2 4 -5 14t-4 14q-56 -52 -124 -52q-75 0 -118 42t-43 113q0 100 85 141q66 31 169 31h9v30q0 29 -13 41t-51 12q-39 0 -117 -30q-16 -5 -20 7l-27 80q-2 7 -2 10.5t2.5 6t9.5 6.5q67 35 175 35q91 0 138 -40
q48 -40 48 -125v-175q0 -27 6 -56h38q14 0 14 -13zM292 121v98h-10q-115 0 -115 -71q0 -27 16 -44.5t40 -17.5q36 0 69 35z" />
    <glyph glyph-name="afii10066" unicode="&#x431;" horiz-adv-x="526" 
d="M155 412h4q14 34 46 53q38 23 91 23q82 0 135 -53q66 -68 66 -191q0 -131 -71 -202q-59 -59 -158 -59q-98 0 -157 59q-44 44 -57.5 105.5t-13.5 143.5q0 114 17 191t69 129q45 46 116 79l175 80q25 11 31 -4l37 -88q6 -17 -13 -25l-184 -79q-59 -25 -91 -57
q-32 -33 -40 -90zM268 94q27 0 44 17q29 29 29 130q0 90 -29 119q-17 17 -44 17q-26 0 -43 -17q-29 -29 -29 -128q0 -92 29 -121q17 -17 43 -17z" />
    <glyph glyph-name="afii10067" unicode="&#x432;" horiz-adv-x="540" 
d="M308 0h-217q-12 0 -12 12v364h-41q-9 0 -11 2.5t-2 10.5v91q0 14 13 14h262q113 0 158 -43q34 -33 34 -86q0 -48 -28 -77q-20 -22 -51 -26q33 -6 63 -32q34 -33 34 -88q0 -68 -49 -106q-50 -36 -153 -36zM233 394v-94h42q42 0 57 14q14 14 14 36q0 21 -13 32
q-13 12 -50 12h-50zM233 205v-105h52q40 0 58 12q17 12 17 38q0 27 -14 39q-16 16 -58 16h-55z" />
    <glyph glyph-name="afii10068" unicode="&#x433;" horiz-adv-x="448" 
d="M38 494h383q12 0 12 -14v-154q0 -8 -3 -11t-11 -3h-91q-12 0 -12 14v48h-83v-257h47q9 0 11 -2.5t2 -10.5v-91q0 -8 -2 -10.5t-11 -2.5h-242q-9 0 -11 2.5t-2 10.5v91q0 8 2 10.5t11 2.5h41v259h-41q-9 0 -11 2.5t-2 10.5v91q0 14 13 14z" />
    <glyph glyph-name="afii10069" unicode="&#x434;" horiz-adv-x="550" 
d="M485 484v-380h48q9 0 9 -9v-215q0 -9 -2.5 -11.5t-11.5 -2.5h-102q-8 0 -11 3t-3 11v120h-279v-120q0 -9 -2.5 -11.5t-11.5 -2.5h-102q-8 0 -11 3t-3 11v215q0 9 9 9h46q37 61 49 123q11 50 11 139v10h-41q-9 0 -11 2.5t-2 10.5v91q0 14 13 14h399q9 0 9 -10zM335 104
v286h-85v-26q0 -80 -7 -126q-11 -70 -42 -134h134z" />
    <glyph glyph-name="afii10070" unicode="&#x435;" horiz-adv-x="504" 
d="M419 128l35 -72q4 -9 2 -13t-12 -11q-76 -49 -180 -49q-116 0 -176 67.5t-60 192.5q0 120 62.5 194t168.5 74q212 0 212 -280q0 -12 -4.5 -16t-17.5 -4h-273q3 -57 26.5 -84t69.5 -27q60 0 123 34q17 8 24 -6zM177 312h143q-2 55 -17.5 76.5t-49.5 21.5
q-35 0 -51.5 -21.5t-24.5 -76.5z" />
    <glyph glyph-name="afii10072" unicode="&#x436;" horiz-adv-x="714" 
d="M413 0h-114q-12 0 -12 11v191h-22q-25 0 -36 -10q-12 -10 -19 -48l-14 -68q-14 -65 -68 -82q-34 -11 -78 -11q-22 0 -26 15l-19 79q-4 21 11 23l14 2q23 4 31 12t14 32l12 44q7 28 24 45q19 17 43 23v3q-19 5 -37 20q-14 14 -22 43l-7 30q-6 24 -14 31q-9 8 -32 12l-11 2
q-16 3 -13 16l23 89q3 11 20 11q61 0 98 -31q32 -26 43 -80l8 -41q5 -27 18 -38q13 -12 41 -12h18v164q0 17 14 17h116q10 0 10 -14v-167h18q27 0 41 12q13 11 18 38l8 41q11 54 43 80q37 31 98 31q17 0 20 -11l23 -89q3 -13 -13 -16l-11 -2q-23 -4 -32 -12q-8 -7 -14 -31
l-7 -30q-8 -29 -22 -43q-18 -15 -37 -20v-3q24 -6 43 -23q17 -17 24 -45l12 -44q6 -24 14 -32t31 -12l14 -2q15 -2 11 -23l-19 -79q-4 -15 -26 -15q-44 0 -78 11q-54 17 -68 82l-14 68q-7 38 -19 48q-11 10 -36 10h-22v-188q0 -14 -14 -14z" />
    <glyph glyph-name="afii10073" unicode="&#x437;" horiz-adv-x="465" 
d="M178 299h10q43 0 57 6q30 12 30 43q0 28 -23 41q-17 10 -48 10q-19 0 -46 -6v-39q0 -8 -3 -11t-11 -3h-89q-8 0 -11 3t-3 11v81q0 15 11 26q21 21 68 36q45 14 100 14q93 0 144 -35q61 -41 61 -116q0 -50 -28 -79q-16 -18 -44 -26v-3q34 -10 55 -36q27 -32 27 -78
q0 -81 -64 -122q-53 -34 -157 -34q-54 0 -98 11q-49 12 -81 36q-13 10 -9 21l35 81q6 13 21 7l4 -2q36 -18 51 -23q31 -11 64 -11q38 0 55 10q21 12 21 39q0 29 -24 40q-19 8 -56 8h-16q-17 0 -17 16v69q0 15 14 15z" />
    <glyph glyph-name="afii10074" unicode="&#x438;" horiz-adv-x="601" 
d="M79 14v362h-41q-9 0 -11 2.5t-2 10.5v91q0 14 13 14h175q10 0 10 -13v-192q0 -49 -4 -93h3l18 38q33 69 47 94l82 152q9 14 20 14h123q10 0 10 -9v-368h41q9 0 11 -2.5t2 -10.5v-91q0 -8 -2 -10.5t-11 -2.5h-171q-9 0 -11.5 2.5t-2.5 11.5v192q0 55 5 93h-4l-14 -37
q-12 -33 -45 -96l-82 -153q-6 -13 -17 -13h-128q-9 0 -11.5 2.5t-2.5 11.5z" />
    <glyph glyph-name="afii10075" unicode="&#x439;" horiz-adv-x="601" 
d="M79 14v362h-41q-9 0 -11 2.5t-2 10.5v91q0 14 13 14h175q10 0 10 -13v-192q0 -49 -4 -93h3l18 38q33 69 47 94l82 152q9 14 20 14h123q10 0 10 -9v-368h41q9 0 11 -2.5t2 -10.5v-91q0 -8 -2 -10.5t-11 -2.5h-171q-9 0 -11.5 2.5t-2.5 11.5v192q0 55 5 93h-4l-14 -37
q-12 -33 -45 -96l-82 -153q-6 -13 -17 -13h-128q-9 0 -11.5 2.5t-2.5 11.5zM240 721l1 -3q10 -30 17 -39q14 -16 39 -16q24 0 38 15q9 9 17 37l2 6q5 16 20 14l81 -11q10 -1 10 -14q0 -59 -42 -100q-49 -47 -126 -47q-74 0 -120 41q-48 42 -48 106q0 13 10 14l82 11
q14 2 19 -14z" />
    <glyph glyph-name="afii10076" unicode="&#x43a;" horiz-adv-x="544" 
d="M222 0h-131q-12 0 -12 10v366h-41q-9 0 -11 2.5t-2 10.5v91q0 14 13 14h178h3q6 0 8 -0.5t4 -3.5t2 -9v-165h30q31 0 45 12q16 13 23 49l7 33q9 40 31 64q39 41 113 41q19 0 22 -11l22 -89q3 -12 -13 -15l-12 -3q-19 -4 -28 -12q-11 -9 -16 -31l-5 -21q-7 -31 -24 -48
t-41 -21v-3q28 -9 44 -25t26 -53l10 -37q8 -28 20 -36q9 -6 32 -10l10 -2q12 -3 9 -16l-21 -84q-4 -15 -26 -15q-87 0 -122 34q-24 24 -33 70l-10 52q-9 37 -22 49t-43 12h-28v-188q0 -12 -11 -12z" />
    <glyph glyph-name="afii10077" unicode="&#x43b;" horiz-adv-x="566" 
d="M333 374h-79v-17q0 -93 -7 -165q-10 -107 -57 -158q-49 -52 -140 -52q-12 0 -16 2.5t-6 11.5l-21 71q-7 29 9 31l10 1q40 4 60 30q26 34 28 129q0 2 0.5 43t0.5 75h-41q-9 0 -11 2.5t-2 10.5v91q0 14 13 14h399q14 0 14 -15v-362h41q9 0 11 -2.5t2 -10.5v-91
q0 -8 -2 -10.5t-11 -2.5h-181q-8 0 -11 3t-3 11v360z" />
    <glyph glyph-name="afii10078" unicode="&#x43c;" horiz-adv-x="658" 
d="M419 494h191q13 0 13 -14v-91q0 -8 -2 -10.5t-11 -2.5h-28l10 -259h27q8 0 11 -3t3 -11v-89q0 -8 -3 -11t-11 -3h-146q-13 0 -13 15l-2 297h-6q-11 -68 -34 -132l-31 -88q-1 -1 -2.5 -5.5t-2 -5.5l-2 -4t-3.5 -3.5t-5.5 -1.5t-7.5 -1h-69q-3 0 -5.5 0.5t-4.5 1.5
t-3.5 2.5t-2.5 3.5t-1.5 3.5l-1.5 4.5t-2 5l-31 85q-21 56 -36 135h-6l-3 -297q0 -15 -12 -15h-147q-8 0 -11 3t-3 11v89q0 8 3 11t11 3h27l11 259h-28q-9 0 -11 2.5t-2 10.5v91q0 14 13 14h190q10 0 14 -11l55 -169q14 -43 20 -81h4q6 36 20 80l53 170q3 11 14 11z" />
    <glyph glyph-name="afii10079" unicode="&#x43d;" horiz-adv-x="583" 
d="M38 494h176q16 0 17 -2q2 -3 2 -13v-165h117v165q0 6 0.5 9.5t2.5 4.5l3 1.5t5.5 0t7.5 -0.5h176q13 0 13 -14v-91q0 -8 -2 -10.5t-11 -2.5h-41v-259h41q9 0 11 -2.5t2 -10.5v-91q0 -8 -2 -10.5t-11 -2.5h-179q-12 0 -14 1.5t-2 13.5v179h-117v-179q0 -12 -2 -13.5
t-14 -1.5h-179q-9 0 -11 2.5t-2 10.5v91q0 8 2 10.5t11 2.5h41v259h-41q-9 0 -11 2.5t-2 10.5v91q0 14 13 14z" />
    <glyph glyph-name="afii10080" unicode="&#x43e;" horiz-adv-x="521" 
d="M492 246q0 -120 -61.5 -191.5t-168.5 -71.5q-111 0 -171.5 70.5t-60.5 194.5q0 121 62 192t171 71q108 0 168.5 -71t60.5 -194zM335 247q0 83 -17.5 118t-56.5 35t-57 -35t-18 -119q0 -83 18 -117.5t57 -34.5t56.5 35t17.5 118z" />
    <glyph glyph-name="afii10081" unicode="&#x43f;" horiz-adv-x="566" 
d="M38 494h489q14 0 14 -14v-91q0 -8 -2 -10.5t-11 -2.5h-41v-259h41q9 0 11 -2.5t2 -10.5v-91q0 -8 -2 -10.5t-11 -2.5h-183q-12 0 -12 12v360h-100v-360q0 -12 -11 -12h-184q-9 0 -11 2.5t-2 10.5v91q0 8 2 10.5t11 2.5h41v259h-41q-9 0 -11 2.5t-2 10.5v91q0 14 13 14z
" />
    <glyph glyph-name="afii10082" unicode="&#x440;" horiz-adv-x="553" 
d="M30 495h155q9 0 13 -5t11 -25q59 46 124 46q93 0 140.5 -68t47.5 -191q0 -135 -48 -202t-150 -67q-48 0 -91 22v-90h43q8 0 11 -3t3 -11v-89q0 -15 -14 -15h-238q-13 0 -13 15v89q0 8 2.5 11t10.5 3h41v413q0 20 -6 49h-42q-8 0 -11 3t-3 11v90q0 8 3 11t11 3zM232 367
v-266q29 -15 60 -15q43 0 61 35t18 127q0 149 -70 149q-34 0 -69 -30z" />
    <glyph glyph-name="afii10083" unicode="&#x441;" horiz-adv-x="446" 
d="M386 119l28 -73q4 -9 3.5 -13.5t-8.5 -10.5q-23 -19 -66.5 -29t-83.5 -10q-112 0 -171.5 67t-59.5 188q0 126 65.5 199.5t180.5 73.5q90 0 131 -35q9 -7 9 -20v-131q0 -8 -2.5 -10.5t-10.5 -2.5h-97q-8 0 -10.5 2.5t-2.5 10.5v68q-16 2 -17 2q-47 0 -69 -35.5t-22 -115.5
q0 -77 22.5 -110t70.5 -33q35 0 86 22q19 8 24 -4z" />
    <glyph glyph-name="afii10084" unicode="&#x442;" horiz-adv-x="500" 
d="M23 494h456q16 0 16 -17v-166q0 -8 -3 -11t-11 -3h-89q-12 0 -12 14v68h-55v-262h47q9 0 11 -2.5t2 -10.5v-91q0 -8 -2 -10.5t-11 -2.5h-244q-9 0 -11 2.5t-2 10.5v91q0 8 2 10.5t11 2.5h47v262h-55v-68q0 -14 -12 -14h-89q-8 0 -11 3t-3 11v163q0 20 18 20z" />
    <glyph glyph-name="afii10085" unicode="&#x443;" horiz-adv-x="496" 
d="M504 480v-89q0 -8 -3 -11t-11 -3h-30l-108 -386q-18 -65 -33.5 -102.5t-42.5 -64.5q-47 -45 -124 -45q-32 0 -77.5 12.5t-67.5 31.5q-10 8 -3 23l39 79q6 11 18 4q54 -27 80 -27q28 0 42.5 12t23.5 44l12 42h-37q-10 0 -13.5 2t-6.5 11l-130 364h-28q-8 0 -10.5 3
t-2.5 11v89q0 8 2.5 11t10.5 3h141q10 0 13 -2.5t5 -12.5l66 -250q8 -31 25 -135q17 101 22 127l57 259q3 14 19 14h138q14 0 14 -14z" />
    <glyph glyph-name="afii10086" unicode="&#x444;" horiz-adv-x="685" 
d="M419 691v-211q37 22 80 22q63 0 103 -43q52 -56 52 -206q0 -171 -59 -228q-35 -34 -95 -34q-42 0 -81 16v-99h43q8 0 11 -3t3 -11v-89q0 -15 -14 -15h-238q-9 0 -11 3t-2 12v89q0 6 0.5 8t3.5 4t9 2h41v99q-33 -16 -80 -16q-60 0 -95 34q-60 57 -60 224q0 151 53 210
q40 43 104 43q44 0 78 -22v108h-41q-9 0 -11 3t-2 11v89q0 6 0.5 8.5t3.5 4.5t9 2h181q14 0 14 -15zM410 377v-270q22 -12 43 -12q38 0 53 41q11 31 11 111q0 84 -11 112q-15 39 -51 39q-25 0 -45 -21zM274 107v270q-20 21 -45 21q-36 0 -51 -39q-11 -33 -11 -112
q0 -82 11 -111q15 -41 55 -41q19 0 41 12z" />
    <glyph glyph-name="afii10087" unicode="&#x445;" horiz-adv-x="504" 
d="M491 103v-90q0 -8 -2.5 -10.5t-10.5 -2.5h-113q-15 0 -22 10l-61 89q-3 5 -29 51q-3 -5 -13 -24t-16 -27l-63 -88q-9 -11 -22 -11h-112q-8 0 -11 2.5t-3 10.5v90q0 8 3 10.5t11 2.5h37l99 133l-92 128h-39q-9 0 -11.5 3t-2.5 13v87q0 14 14 14h119q15 0 22 -11l52 -82
q10 -16 26 -49q15 25 31 49l58 83q7 10 23 10h111q13 0 13 -14v-89q0 -8 -2.5 -11t-10.5 -3h-33l-97 -128l96 -133h38q8 0 10.5 -2.5t2.5 -10.5z" />
    <glyph glyph-name="afii10088" unicode="&#x446;" horiz-adv-x="575" 
d="M339 120v363q0 11 9 11h186q13 0 13 -14v-91q0 -8 -2 -10.5t-11 -2.5h-41v-256h53q9 0 9 -9v-235q0 -10 -10 -10h-107q-11 0 -11 14v120h-389q-9 0 -11 2.5t-2 10.5v91q0 8 2 10.5t11 2.5h41v259h-41q-9 0 -11 2.5t-2 10.5v91q0 14 13 14h184q11 0 11 -10v-364h106z" />
    <glyph glyph-name="afii10089" unicode="&#x447;" horiz-adv-x="549" 
d="M316 291v190q0 13 14 13h181q13 0 13 -14v-91q0 -8 -2 -10.5t-11 -2.5h-41v-259h41q9 0 11 -2.5t2 -10.5v-91q0 -8 -2 -10.5t-11 -2.5h-181q-8 0 -11 3t-3 11v173q-46 -20 -97 -20q-78 0 -117 39q-38 37 -38 110v60h-41q-9 0 -11 2.5t-2 10.5v91q0 14 13 14h180
q11 0 11 -12v-145q0 -33 13 -46t40 -13q23 0 49 13z" />
    <glyph glyph-name="afii10090" unicode="&#x448;" horiz-adv-x="800" 
d="M338 494h118q19 0 19 -15v-359h96v355q0 16 8 18q3 1 6 1h177q13 0 13 -14v-91q0 -8 -2 -10.5t-11 -2.5h-41v-259h41q9 0 11 -2.5t2 -10.5v-91q0 -13 -9 -13h-728q-9 0 -11 2.5t-2 10.5v91q0 8 2 10.5t11 2.5h41v259h-41q-13 0 -13 13v91q0 14 13 14h172h2q15 -5 17 -15
v-359h96v355q0 19 13 19z" />
    <glyph glyph-name="afii10091" unicode="&#x449;" horiz-adv-x="803" 
d="M653 0h-623q-5 0 -5 13v91q0 8 2 10.5t11 2.5h41v259h-41q-13 0 -13 13v91q0 14 13 14h172h2q15 -5 17 -15v-359h96v355q0 19 13 19h118q19 0 19 -15v-359h96v355q0 16 8 18q3 1 6 1h177q13 0 13 -14v-91q0 -8 -2 -10.5t-11 -2.5h-41v-256h52q10 0 10 -11v-229
q0 -9 -2.5 -11.5t-11.5 -2.5h-102q-14 0 -14 14v120z" />
    <glyph glyph-name="afii10092" unicode="&#x44a;" horiz-adv-x="596" 
d="M320 212v-107h34q40 0 59 10q23 13 23 43q0 31 -22 44q-17 10 -57 10h-37zM320 485v-171h56q97 0 150 -36q60 -42 60 -123q0 -66 -38 -104q-51 -51 -186 -51h-233q-9 0 -11 2.5t-2 10.5v91q0 8 2 10.5t11 2.5h41v262h-50v-68q0 -14 -12 -14h-89q-8 0 -11 3t-3 11v163
q0 20 18 20h284q13 0 13 -9z" />
    <glyph glyph-name="afii10093" unicode="&#x44b;" horiz-adv-x="750" 
d="M521 14v469q0 11 14 11h177q13 0 13 -14v-91q0 -8 -2 -10.5t-11 -2.5h-41v-259h41q9 0 11 -2.5t2 -10.5v-91q0 -8 -2.5 -10.5t-11.5 -2.5h-176q-14 0 -14 14zM229 212v-107h34q39 0 59 10q23 13 23 45q0 29 -22 42q-17 10 -57 10h-37zM229 485v-171h51q97 0 150 -36
q60 -42 60 -123q0 -66 -38 -104q-51 -51 -192 -51h-222q-9 0 -11 2.5t-2 10.5v91q0 8 2 10.5t11 2.5h41v259h-41q-9 0 -11 2.5t-2 10.5v91q0 14 13 14h178q13 0 13 -9z" />
    <glyph glyph-name="afii10094" unicode="&#x44c;" horiz-adv-x="509" 
d="M233 212v-107h34q39 0 59 10q23 13 23 45q0 29 -22 42q-17 10 -57 10h-37zM233 485v-171h56q97 0 150 -36q60 -42 60 -123q0 -67 -38 -104q-52 -51 -186 -51h-237q-9 0 -11 2.5t-2 10.5v91q0 8 2 10.5t11 2.5h41v259h-41q-9 0 -11 2.5t-2 10.5v91q0 14 13 14h182
q13 0 13 -9z" />
    <glyph glyph-name="afii10095" unicode="&#x44d;" horiz-adv-x="468" 
d="M157 207v76q0 8 3 11t11 3h111q-4 53 -27 75q-23 23 -68 23q-19 0 -39 -6v-47q0 -17 -15 -17h-93q-9 0 -12 3t-3 12v97q0 16 12 27q25 23 70.5 35t87.5 12q115 0 177 -62q66 -67 66 -199q0 -144 -66 -210q-58 -57 -171 -57q-59 0 -105 16q-42 15 -59 29q-11 10 -6 23
l33 77q5 12 23 4q62 -31 106 -31t68 24q22 23 22 68h-112q-8 0 -11 3t-3 11z" />
    <glyph glyph-name="afii10096" unicode="&#x44e;" horiz-adv-x="767" 
d="M233 314h63q6 98 72 153q53 44 144 44q97 0 156 -59q69 -70 69 -200q0 -139 -67 -210q-57 -59 -158 -59q-91 0 -145 43q-69 56 -71 168h-63v-184q0 -10 -10 -10h-185q-9 0 -11 2.5t-2 10.5v91q0 8 2 10.5t11 2.5h41v259h-41q-9 0 -11 2.5t-2 10.5v91q0 14 13 14h183
q12 0 12 -12v-168zM509 400q-27 0 -44 -21q-26 -33 -26 -132q0 -103 29 -135q17 -18 42 -18q27 0 43 17q30 31 30 136q0 101 -25 132q-18 21 -49 21z" />
    <glyph glyph-name="afii10097" unicode="&#x44f;" horiz-adv-x="547" 
d="M228 494h221q9 0 11.5 -2.5t2.5 -11.5v-363h41q9 0 11 -2.5t2 -10.5v-91q0 -8 -2 -10.5t-11 -2.5h-177q-9 0 -11.5 2.5t-2.5 11.5v167h-29q-31 0 -48 -16q-15 -13 -24 -48l-7 -27q-13 -49 -34 -70q-37 -37 -119 -37q-20 0 -24 15l-23 84q-2 6 2 11.5t10 6.5l6 1
q24 5 32 11q11 9 20 33l7 21q10 29 24 42q13 13 33 20v2q-35 7 -60 32q-32 32 -32 85q0 64 40 103q47 44 141 44zM313 283v109h-47q-41 0 -58 -17q-14 -14 -14 -38t15 -38q18 -16 56 -16h48z" />
    <glyph glyph-name="afii10071" unicode="&#x451;" horiz-adv-x="504" 
d="M419 128l35 -72q5 -12 -3 -19q-14 -12 -49 -27q-65 -27 -138 -27q-107 0 -166 57q-70 67 -70 201q0 137 74 209q63 61 160 61q87 0 139 -50q48 -45 63 -136q10 -60 7 -94q0 -10 -4 -15t-6.5 -5h-11.5h-273q0 -55 28 -86q23 -25 70 -25t90 19q10 4 22.5 10.5t15.5 7.5
q11 4 17 -9zM177 312h143q0 18 -4 40q-6 29 -18 42q-16 16 -45 16q-30 0 -47 -16q-11 -10 -20 -37q-6 -22 -9 -45zM284 634q0 32 23.5 55.5t55.5 23.5t55.5 -23.5t23.5 -55.5t-23.5 -55.5t-55.5 -23.5t-55.5 23.5t-23.5 55.5zM84 634q0 32 23.5 55.5t55.5 23.5t55.5 -23.5
t23.5 -55.5t-23.5 -55.5t-55.5 -23.5t-55.5 23.5t-23.5 55.5z" />
    <glyph glyph-name="afii10099" unicode="&#x452;" horiz-adv-x="575" 
d="M232 558v-96q59 50 125 50q69 0 106 -39q51 -53 51 -212q0 -173 -46 -296q-41 -111 -128 -193q-13 -13 -27 -6q-37 17 -64 42q-5 4 -7 7.5t-3 5.5t0.5 5.5t2.5 5.5t5 7t6 8l10 13q39 49 67 129q26 77 26 226q0 114 -10 144q-11 38 -46 38q-30 0 -68 -35v-350
q0 -12 -12 -12h-183q-12 0 -12 10v94q0 8 2 10.5t11 2.5h41v441h-68q-8 0 -11.5 2.5t-3.5 11.5v50q0 9 3 11.5t11 2.5h69v53q0 8 3 11t11 4l125 20q9 1 11.5 -3.5t2.5 -11.5v-73h124q14 0 14 -14v-50q0 -14 -15 -14h-123z" />
    <glyph glyph-name="afii10100" unicode="&#x453;" horiz-adv-x="448" 
d="M38 494h383q12 0 12 -14v-154q0 -8 -3 -11t-11 -3h-91q-12 0 -12 14v48h-83v-257h47q9 0 11 -2.5t2 -10.5v-91q0 -8 -2 -10.5t-11 -2.5h-242q-9 0 -11 2.5t-2 10.5v91q0 8 2 10.5t11 2.5h41v259h-41q-9 0 -11 2.5t-2 10.5v91q0 14 13 14zM331 755l42 -85q5 -10 5 -14
q0 -8 -15 -14l-206 -79q-7 -3 -13 -3q-9 0 -14 13l-24 49q-5 10 -5 14q0 6 14 14l188 113q10 6 15 6q6 0 13 -14z" />
    <glyph glyph-name="afii10101" unicode="&#x454;" horiz-adv-x="471" 
d="M307 283v-76q0 -8 -3 -11t-11 -3h-110v-3q0 -41 23 -66q22 -23 69 -23q40 0 101 30q18 9 23 -4l29 -82q4 -10 -7 -19q-18 -15 -59 -28q-48 -15 -101 -15q-108 0 -165 56q-68 66 -68 210q0 126 67 197q63 65 174 65q43 0 87 -11t68 -32q12 -10 12 -25v-103q0 -9 -3 -12
t-12 -3h-87q-15 0 -15 17v47q-26 6 -45 6q-44 0 -68 -26q-25 -28 -23 -72h110q8 0 11 -3t3 -11z" />
    <glyph glyph-name="afii10102" unicode="&#x455;" horiz-adv-x="443" 
d="M268 362v38q-17 4 -30 4q-60 0 -60 -42q0 -19 13.5 -28.5t55.5 -25.5q98 -37 128 -69q34 -37 34 -100q0 -72 -50.5 -114t-132.5 -42q-99 0 -181 46q-11 6 -11 21v97q0 8 2.5 10.5t10.5 2.5h90q8 0 10.5 -2.5t2.5 -12.5v-38q36 -11 64 -11q55 0 55 41q0 14 -10 23.5
t-23 15.5t-49 19q-82 31 -110 60q-36 38 -36 100q0 69 53.5 112.5t136.5 43.5q98 0 145 -40q9 -8 9 -19v-90q0 -14 -14 -14h-89q-8 0 -11 3t-3 11z" />
    <glyph glyph-name="afii10103" unicode="&#x456;" horiz-adv-x="334" 
d="M265 650q0 -39 -27.5 -67t-67.5 -28t-67.5 28t-27.5 67t28 67t68 28q39 0 66.5 -28t27.5 -67zM321 104v-91q0 -13 -15 -13h-267q-8 0 -10.5 2.5t-2.5 10.5v91q0 8 2.5 10.5t10.5 2.5h58v259h-55q-10 0 -13 3t-3 13v86q0 11 2.5 13.5t13.5 2.5h193q11 0 13.5 -2.5
t2.5 -13.5v-361h55q15 0 15 -13z" />
    <glyph glyph-name="afii10104" unicode="&#x457;" horiz-adv-x="334" 
d="M321 104v-91q0 -13 -15 -13h-267q-8 0 -10.5 2.5t-2.5 10.5v91q0 8 2.5 10.5t10.5 2.5h58v259h-55q-10 0 -13 3t-3 13v86q0 11 2.5 13.5t13.5 2.5h193q11 0 13.5 -2.5t2.5 -13.5v-361h55q15 0 15 -13zM322 636q0 -33 -20.5 -57t-50.5 -24q-29 0 -50 24t-21 57
q0 34 21 57.5t50 23.5q30 0 50.5 -23.5t20.5 -57.5zM155 636q0 -33 -21 -57t-50 -24q-30 0 -51 24t-21 57q0 34 21 57.5t51 23.5q29 0 50 -23.5t21 -57.5z" />
    <glyph glyph-name="afii10105" unicode="&#x458;" horiz-adv-x="319" 
d="M268 650q0 -39 -27.5 -67t-67.5 -28t-67.5 28t-27.5 67t28 67t68 28q39 0 66.5 -28t27.5 -67zM255 478v-473q0 -74 -8 -116t-36 -73q-47 -52 -143 -52q-58 0 -115 24q-14 6 -10 22l28 91q2 9 16 4q36 -16 66 -16q26 0 36.5 22t10.5 95v370h-65q-11 0 -13.5 3t-2.5 13v86
q0 11 2.5 13.5t13.5 2.5h203q11 0 14 -2.5t3 -13.5z" />
    <glyph glyph-name="afii10106" unicode="&#x459;" horiz-adv-x="758" 
d="M487 212v-107h34q39 0 59 10q23 13 23 45q0 29 -22 42q-17 10 -57 10h-37zM487 314h56q97 0 150 -36q60 -42 60 -123q0 -67 -38 -104q-52 -51 -186 -51h-183q-9 0 -11 2.5t-2 10.5v361h-79v-17q0 -93 -7 -165q-10 -107 -57 -158q-49 -52 -140 -52q-12 0 -16 2.5t-6 11.5
l-21 71q-7 29 9 31l10 1q40 4 60 30q26 34 28 129q0 2 0.5 43t0.5 75h-41q-9 0 -11 2.5t-2 10.5v91q0 14 13 14h400q9 0 11 -2.5t2 -10.5v-167z" />
    <glyph glyph-name="afii10107" unicode="&#x45a;" horiz-adv-x="775" 
d="M504 212v-107h34q39 0 59 10q23 13 23 45q0 29 -22 42q-17 10 -57 10h-37zM504 485v-171h56q97 0 150 -36q60 -42 60 -123q0 -67 -38 -104q-52 -51 -186 -51h-183q-9 0 -11 2.5t-2 10.5v181h-117v-179q0 -12 -2 -13.5t-14 -1.5h-179q-9 0 -11 2.5t-2 10.5v91q0 8 2 10.5
t11 2.5h41v259h-41q-9 0 -11 2.5t-2 10.5v91q0 14 13 14h176q16 0 17 -2q2 -3 2 -13v-165h117v166q0 14 13 14h128q13 0 13 -9z" />
    <glyph glyph-name="afii10108" unicode="&#x45b;" horiz-adv-x="586" 
d="M560 104v-91q-1 -5 0 -8t-3 -4t-5 -1h-5h-179h-2q-4 0 -6.5 0.5t-4.5 4t-2 10.5v316q0 38 -11.5 52t-34.5 14q-39 0 -75 -33v-351q0 -5 -0.5 -7.5t-2 -4t-2 -1.5h-4h-4.5h-181h-3h-5.5t-3 3t-1.5 10v91q0 5 0.5 7.5t2 4t2 1.5h4h4.5h41v441h-68q-12 0 -13.5 1t-1.5 13v50
q0 12 1.5 13t12.5 1h69v53q0 10 1 11.5t9 2.5q2 1 4 1l125 20q11 1 12.5 0t1.5 -15v-73h124q14 0 14 -14v-50q0 -11 -1.5 -12.5t-13.5 -1.5h-123v-97q57 51 128 51q41 0 72 -15.5t40.5 -27t15.5 -23.5q18 -40 18 -93v-236h41q7 0 10 -2.5t3 -3.5v-7z" />
    <glyph glyph-name="afii10109" unicode="&#x45c;" horiz-adv-x="544" 
d="M222 0h-131q-12 0 -12 10v366h-41q-9 0 -11 2.5t-2 10.5v91q0 14 13 14h178h3q6 0 8 -0.5t4 -3.5t2 -9v-165h30q31 0 45 12q16 13 23 49l7 33q9 40 31 64q39 41 113 41q19 0 22 -11l22 -89q3 -12 -13 -15l-12 -3q-19 -4 -28 -12q-11 -9 -16 -31l-5 -21q-7 -31 -24 -48
t-41 -21v-3q28 -9 44 -25t26 -53l10 -37q8 -28 20 -36q9 -6 32 -10l10 -2q12 -3 9 -16l-21 -84q-4 -15 -26 -15q-87 0 -122 34q-24 24 -33 70l-10 52q-9 37 -22 49t-43 12h-28v-188q0 -12 -11 -12zM376 755l42 -85q5 -10 5 -14q0 -8 -15 -14l-206 -79q-7 -3 -13 -3
q-9 0 -14 13l-24 49q-5 10 -5 14q0 6 14 14l188 113q11 6 15 6q6 0 13 -14z" />
    <glyph glyph-name="afii10110" unicode="&#x45e;" horiz-adv-x="496" 
d="M504 480v-89q0 -8 -3 -11t-11 -3h-30l-108 -386q-18 -65 -33.5 -102.5t-42.5 -64.5q-47 -45 -124 -45q-32 0 -77.5 12.5t-67.5 31.5q-10 8 -3 23l39 79q6 11 18 4q54 -27 80 -27q28 0 42.5 12t23.5 44l12 42h-37q-10 0 -13.5 2t-6.5 11l-130 364h-28q-8 0 -10.5 3
t-2.5 11v89q0 8 2.5 11t10.5 3h141q10 0 13 -2.5t5 -12.5l66 -250q8 -31 25 -135q17 101 22 127l57 259q3 14 19 14h138q14 0 14 -14zM186 721l1 -3q10 -30 17 -39q14 -16 39 -16q24 0 38 15q9 9 17 37l2 6q5 16 20 14l81 -11q10 -1 10 -14q0 -59 -42 -100q-49 -47 -126 -47
q-74 0 -120 41q-48 42 -48 106q0 13 10 14l82 11q14 2 19 -14z" />
    <glyph glyph-name="afii10193" unicode="&#x45f;" horiz-adv-x="578" 
d="M38 494h184q11 0 11 -10v-364h112v363q0 11 9 11h186q13 0 13 -14v-91q0 -8 -2 -10.5t-11 -2.5h-41v-259h41q9 0 11 -2.5t2 -10.5v-91q0 -8 -2 -10.5t-11 -2.5h-177v-155q0 -10 -10 -10h-126q-11 0 -11 14v151h-178q-9 0 -11 2.5t-2 10.5v91q0 8 2 10.5t11 2.5h41v259
h-41q-9 0 -11 2.5t-2 10.5v91q0 14 13 14z" />
    <glyph glyph-name="afii10050" unicode="&#x490;" horiz-adv-x="491" 
d="M39 120h49v445h-46q-15 0 -15 12v93q0 16 17 16h306v107q0 12 13 12h104q12 0 12 -15v-221q0 -14 -14 -14h-213v-435h62q15 0 15 -15v-90q0 -15 -12 -15h-276q-14 0 -14 12v94q0 14 12 14z" />
    <glyph glyph-name="afii10098" unicode="&#x491;" horiz-adv-x="438" 
d="M38 494h273v83q0 14 12 14h91q8 0 11 -3t3 -11v-189q0 -14 -12 -14h-183v-257h47q9 0 11 -2.5t2 -10.5v-91q0 -8 -2 -10.5t-11 -2.5h-242q-9 0 -11 2.5t-2 10.5v91q0 8 2 10.5t11 2.5h41v259h-41q-9 0 -11 2.5t-2 10.5v91q0 14 13 14z" />
    <glyph glyph-name="endash" unicode="&#x2013;" 
d="M499 300v-88q0 -14 -3.5 -17t-17.5 -3h-436q-14 0 -17 3t-3 17v88q0 13 3 17t17 4h436q14 0 17.5 -4t3.5 -17z" />
    <glyph glyph-name="emdash" unicode="&#x2014;" horiz-adv-x="851" 
d="M824 300v-87q0 -14 -3.5 -17.5t-17.5 -3.5h-756q-14 0 -17 3.5t-3 17.5v87q0 14 3 17.5t17 3.5h756q14 0 17.5 -4t3.5 -17z" />
    <glyph glyph-name="quoteleft" unicode="&#x2018;" horiz-adv-x="306" 
d="M258 676l-57 -201q-4 -16 -21 -16h-128q-17 0 -19.5 6t4.5 19l114 224q6 11 10.5 12.5t16.5 -2.5l67 -16q13 -3 15 -8.5t-2 -17.5z" />
    <glyph glyph-name="quoteright" unicode="&#x2019;" horiz-adv-x="290" 
d="M252 688l-114 -224q-6 -11 -10.5 -12.5t-16.5 2.5l-67 17q-14 4 -15.5 8.5t2.5 17.5l56 199q5 18 22 18h127q30 0 16 -26z" />
    <glyph glyph-name="quotedblleft" unicode="&#x201c;" horiz-adv-x="510" 
d="M478 676l-56 -201q-4 -16 -22 -16h-128q-17 0 -19.5 6t4.5 19l114 224q6 11 10.5 12.5t16.5 -2.5l67 -16q13 -3 15 -8.5t-2 -17.5zM258 676l-57 -201q-4 -16 -21 -16h-128q-17 0 -19.5 6t4.5 19l114 224q6 11 10.5 12.5t16.5 -2.5l67 -16q13 -3 15 -8.5t-2 -17.5z" />
    <glyph glyph-name="quotedblright" unicode="&#x201d;" horiz-adv-x="513" 
d="M482 686l-114 -223q-6 -11 -10.5 -12.5t-16.5 2.5l-67 16q-14 3 -16 8.5t3 17.5l57 200q4 17 21 17h128q29 0 15 -26zM262 686l-114 -223q-6 -11 -10.5 -12.5t-16.5 2.5l-67 16q-14 4 -16 8.5t3 17.5l56 200q4 17 22 17h128q29 0 15 -26z" />
    <glyph glyph-name="quotedblbase" unicode="&#x201e;" horiz-adv-x="512" 
d="M481 100l-114 -224q-6 -11 -10.5 -13t-16.5 2l-67 17q-14 4 -15.5 8.5t2.5 16.5l57 201q4 16 21 16h128q17 0 19.5 -5.5t-4.5 -18.5zM261 100l-114 -224q-6 -11 -10.5 -13t-16.5 2l-67 17q-14 4 -15.5 8.5t2.5 16.5l56 201q4 16 22 16h128q16 0 19 -5.5t-4 -18.5z" />
    <glyph glyph-name="dagger" unicode="&#x2020;" horiz-adv-x="543" 
d="M480 463v-80q0 -14 -3.5 -17.5t-16.5 -3.5h-118v-553q0 -13 -3.5 -17t-16.5 -4h-101q-13 0 -17 3.5t-4 17.5v553h-116q-14 0 -17.5 3.5t-3.5 17.5v80q0 14 3.5 17t17.5 3h116v183q0 13 4 16.5t17 3.5h101q13 0 16.5 -3.5t3.5 -16.5v-183h118q13 0 16.5 -3t3.5 -17z" />
    <glyph glyph-name="bullet" unicode="&#x2022;" horiz-adv-x="674" 
d="M491 350q0 -60 -42 -102t-101 -42t-101.5 42t-42.5 102t42.5 102.5t101.5 42.5t101 -42.5t42 -102.5z" />
    <glyph glyph-name="ellipsis" unicode="&#x2026;" horiz-adv-x="907" 
d="M867 89q0 -46 -32.5 -78t-78.5 -32t-78 32t-32 78t32 78.5t78 32.5t78.5 -32.5t32.5 -78.5zM564 89q0 -46 -32 -78t-78 -32t-78.5 32t-32.5 78t32.5 78.5t78.5 32.5t78 -32.5t32 -78.5zM261 89q0 -46 -32 -78t-78 -32t-78 32t-32 78t32 78.5t78 32.5t78 -32.5t32 -78.5z
" />
    <glyph glyph-name="Euro" unicode="&#x20ac;" horiz-adv-x="582" 
d="M543 195v-134q0 -19 -17 -32q-63 -46 -176 -46q-120 0 -185 63q-34 33 -58 87.5t-29 110.5h-65q-20 0 -13 16l16 43q5 14 12 15q3 1 7 1h36v40h-58q-6 0 -9 1t-5.5 4.5t1.5 10.5l16 43q5 14 12 15q3 1 7 1h41q6 54 29.5 109t57.5 90q70 70 190 70q112 0 170 -55
q12 -11 12 -28v-127q0 -17 -18 -17h-99q-16 0 -16 17v70q-22 5 -50 5q-46 0 -74 -30t-37 -104h169q6 0 9.5 -0.5t8 -4.5t-0.5 -13l-16 -43q-5 -14 -23 -14h-151v-40h130q6 0 9.5 -0.5t7.5 -4.5t1 -11l-17 -45q-3 -9 -6.5 -11.5t-14.5 -2.5h-102q6 -57 35 -91q31 -35 86 -35
q22 0 44 4v73q0 17 18 17h98q11 0 14 -3.5t3 -13.5z" />
    <glyph glyph-name="afii61352" unicode="&#x2116;" horiz-adv-x="1011" 
d="M833 703q23 0 46 -7t49 -24.5t42 -54.5t16 -88q0 -53 -15.5 -90t-40.5 -54.5t-49 -24.5t-49 -7q-13 0 -26.5 1.5t-38.5 11.5t-43 27t-32 52.5t-14 83.5q0 88 46 131t109 43zM977 261v-52q0 -10 -3 -14t-14 -4h-256q-11 0 -14.5 3.5t-3.5 13.5v53q0 10 3 14t14 4h257
q11 0 14 -4t3 -14zM832 626q-20 0 -31 -16.5t-13 -34.5t-2 -45q0 -59 11.5 -79.5t34.5 -20.5t34.5 20.5t11.5 77.5q0 98 -46 98zM646 670v-91q0 -14 -14 -14h-48v-551q0 -8 -3 -11t-11 -3h-105q-8 0 -15 11l-174 316q-27 49 -53 120l2 -18q7 -59 7 -105v-204h48q13 0 13 -12
v-96q0 -12 -11 -12h-245q-10 0 -10 11v96q0 13 14 13h47v445h-44q-11 0 -14 4t-3 14v88q0 15 13 15h179q12 0 19 -11l157 -284q24 -43 54 -126l-1 12q-7 80 -7 112v176h-48q-14 0 -14 14v91q0 16 14 16h238q15 0 15 -16z" />
    <glyph glyph-name="trademark" unicode="&#x2122;" horiz-adv-x="790" 
d="M759 347v-49q0 -8 -2.5 -10.5t-10.5 -2.5h-100q-15 0 -15 13l-4 167q0 45 3 75q-7 -31 -18 -68l-28 -92q-3 -11 -16 -11h-45q-8 0 -10.5 2t-4.5 10l-26 88q-1 3 -16 71q1 -21 1 -78l-2 -164q0 -13 -15 -13h-97q-8 0 -11 2.5t-3 10.5v49q0 8 3 10.5t11 2.5h18l14 250h-20
q-8 0 -11 3t-3 11v49q0 8 3 10.5t11 2.5h113q13 0 16 -11l42 -129q3 -10 7 -30l5 -25q6 25 16 55l43 129q3 11 16 11h111q8 0 11 -2.5t3 -10.5v-49q0 -8 -3 -11t-11 -3h-21l13 -250h20q8 0 10.5 -2.5t2.5 -10.5zM318 674v-114q0 -13 -13 -13h-43q-13 0 -13 13v40h-32v-240
h34q9 0 12 -2.5t3 -11.5v-47q0 -9 -2.5 -11.5t-11.5 -2.5h-174q-9 0 -11.5 2.5t-2.5 11.5v47q0 9 3 11.5t12 2.5h34v240h-32v-40q0 -13 -13 -13h-42q-14 0 -14 13v114q0 12 14 12h279q13 0 13 -12z" />
    <glyph glyph-name="radical" unicode="&#x221a;" horiz-adv-x="513" 
d="M96 405h-67q-8 0 -11 3t-3 11v61q0 8 3 11t11 3h145q11 0 15 -15q1 -1 1 -2l90 -358h5l144 571q3 13 16 13h57q19 0 14 -15l-190 -739q-2 -10 -14 -10h-86q-10 0 -13 10z" />
    <glyph glyph-name="infinity" unicode="&#x221e;" horiz-adv-x="859" 
d="M430 236q-29 -32 -55 -54q-74 -62 -154 -62q-37 0 -71.5 14.5t-55.5 36.5q-44 47 -44 122q0 74 45 119q21 21 56 35.5t70 14.5q80 0 154 -62q26 -22 55 -54q22 27 55 54q77 62 152 62q33 0 68.5 -13t58.5 -36q45 -45 45 -120q0 -31 -11.5 -66t-32.5 -57
q-22 -23 -58.5 -36.5t-68.5 -13.5q-73 0 -146 56q-33 26 -62 60zM495 291q20 -20 51 -40q45 -29 84 -29q38 0 60 21q20 20 20 49q0 30 -19 47q-22 22 -61 22q-43 0 -84 -29q-25 -16 -51 -41zM362 291q-27 26 -50 41q-42 29 -85 29q-38 0 -60 -22q-19 -17 -19 -47
q0 -29 19 -48q20 -22 60 -22q41 0 85 29q20 12 50 40z" />
    <glyph glyph-name="approxequal" unicode="&#x2248;" horiz-adv-x="574" 
d="M479 456l49 -28q11 -6 11 -11t-7 -17q-40 -78 -86 -102q-32 -17 -73 -17q-34 0 -101 26l-49 19q-23 9 -43 9q-33 0 -62 -47q-7 -12 -11.5 -12.5t-16.5 6.5l-47 28q-11 6 -12 11t5 17q29 65 61 95.5t92 30.5q41 0 108 -26q68 -27 90 -27q39 0 64 37q8 12 12.5 13t15.5 -5z
M483 251l49 -28q11 -6 11 -11t-7 -17q-40 -78 -86 -102q-32 -17 -73 -17q-34 0 -101 26l-49 19q-22 9 -43 9q-33 0 -62 -47q-7 -12 -11.5 -12.5t-16.5 6.5l-47 28q-11 6 -12 11t5 17q29 65 61 95.5t92 30.5q41 0 108 -26q68 -27 90 -27q39 0 64 37q8 12 12.5 13t15.5 -5z
" />
    <glyph glyph-name="notequal" unicode="&#x2260;" horiz-adv-x="529" 
d="M498 222v-103q0 -10 -3 -13t-13 -3h-243l-49 -98q-6 -9 -15 -5l-71 34q-13 7 -7 19l25 50h-79q-9 0 -12 3t-3 12v104q0 10 3 13t13 3h146l33 68h-176q-10 0 -13 3t-3 13v103q0 16 17 16h243l48 95q7 12 19 7l67 -32q15 -7 7 -21l-25 -49h78q10 0 13.5 -2.5t3.5 -13.5
v-103q0 -11 -3.5 -13.5t-13.5 -2.5h-146l-34 -68h177q10 0 13 -3t3 -13z" />
    <glyph glyph-name="lessequal" unicode="&#x2264;" horiz-adv-x="522" 
d="M500 285v-122q0 -13 -9 -13q-2 0 -6 2l-448 228q-1 1 -3 1q-11 8 -11 19v92q0 12 12 19l450 229q4 2 6 2q9 0 9 -11v-125q0 -16 -11 -21l-292 -138l292 -141q11 -6 11 -21zM500 76v-122q0 -13 -9 -13q-2 0 -6 2l-448 228q-1 1 -3 1q-11 8 -11 19v119q0 17 11 17q4 0 6 -1
l449 -229q11 -5 11 -21z" />
    <glyph glyph-name="greaterequal" unicode="&#x2265;" horiz-adv-x="522" 
d="M23 163v122q0 15 11 21l292 141l-292 138q-11 5 -11 21v125q0 11 9 11q2 0 6 -2l450 -229q12 -7 12 -19v-92q0 -7 -2.5 -11t-3.5 -4.5t-8 -4.5l-448 -228q-4 -2 -6 -2q-9 0 -9 13zM23 -46v122q0 16 11 21l449 229q2 1 6 1q11 0 11 -17v-119q0 -7 -2.5 -11t-3.5 -4.5
t-8 -4.5l-448 -228q-4 -2 -6 -2q-9 0 -9 13z" />
    <glyph glyph-name="Acute" unicode="&#xf6c9;" horiz-adv-x="513" 
d="M356 934l42 -85q5 -10 5 -14q0 -8 -15 -14l-206 -79q-8 -3 -13 -3q-9 0 -14 13l-24 49q-5 10 -5 14q0 6 14 14l188 113q11 6 15 6q6 0 13 -14z" />
    <glyph glyph-name="Dieresis" unicode="&#xf6cb;" horiz-adv-x="507" 
d="M442 816q0 -35 -24.5 -60t-59.5 -25t-59.5 25t-24.5 60t24.5 60t59.5 25t59.5 -25t24.5 -60zM233 816q0 -35 -24.5 -60t-59.5 -25t-59.5 25t-24.5 60t24.5 60t59.5 25t59.5 -25t24.5 -60z" />
    <glyph glyph-name="cyrBreve" unicode="&#xf6d1;" horiz-adv-x="425" 
d="M288 916l96 -11q11 -2 11 -14q0 -55 -45 -98q-53 -49 -139 -49t-139 49q-45 43 -45 98q0 13 11 14l96 11q12 1 15 -11l2 -7q9 -30 16 -37q14 -16 44 -16t44 16q7 7 16 37l2 7q3 12 15 11z" />
    <glyph glyph-name="cyrbreve" unicode="&#xf6d4;" horiz-adv-x="386" 
d="M136 721l1 -3q10 -30 17 -39q14 -16 39 -16q24 0 38 15q9 9 17 37l2 6q5 16 20 14l81 -11q10 -1 10 -14q0 -59 -42 -100q-49 -47 -126 -47q-74 0 -120 41q-48 42 -48 106q0 13 10 14l82 11q14 2 19 -14z" />
    <glyph glyph-name="nbspace" horiz-adv-x="233" 
 />
    </font>
</defs>
</svg>
